<svg xmlns="http://www.w3.org/2000/svg" xmlns:xlink="http://www.w3.org/1999/xlink" xmlns:lucid="lucid" width="1760" height="2511"><g transform="translate(-60 -9)" lucid:page-tab-id="0_0"><path d="M955.2 100l120 80-120 80-120-80z" stroke="#000" stroke-width="2" fill="#fff"/><use xlink:href="#a" transform="matrix(1,0,0,1,840.1999999999999,105) translate(75.555 47.2125)"/><use xlink:href="#b" transform="matrix(1,0,0,1,840.1999999999999,105) translate(144.45499999999998 47.2125)"/><use xlink:href="#c" transform="matrix(1,0,0,1,840.1999999999999,105) translate(40.08 68.8125)"/><use xlink:href="#d" transform="matrix(1,0,0,1,840.1999999999999,105) translate(141.03 68.8125)"/><use xlink:href="#e" transform="matrix(1,0,0,1,840.1999999999999,105) translate(33.205 90.41250000000001)"/><use xlink:href="#f" transform="matrix(1,0,0,1,840.1999999999999,105) translate(95.95500000000001 90.41250000000001)"/><use xlink:href="#g" transform="matrix(1,0,0,1,840.1999999999999,105) translate(119.90500000000002 90.41250000000001)"/><use xlink:href="#h" transform="matrix(1,0,0,1,840.1999999999999,105) translate(62.555 112.01250000000002)"/><use xlink:href="#i" transform="matrix(1,0,0,1,840.1999999999999,105) translate(87.55499999999999 112.01250000000002)"/><path d="M955.2 320l120 80-120 80-120-80z" stroke="#000" stroke-width="2" fill="#fff"/><use xlink:href="#a" transform="matrix(1,0,0,1,840.1999999999999,325) translate(75.555 47.2125)"/><use xlink:href="#b" transform="matrix(1,0,0,1,840.1999999999999,325) translate(144.45499999999998 47.2125)"/><use xlink:href="#c" transform="matrix(1,0,0,1,840.1999999999999,325) translate(33.55500000000001 68.8125)"/><use xlink:href="#j" transform="matrix(1,0,0,1,840.1999999999999,325) translate(134.505 68.8125)"/><use xlink:href="#k" transform="matrix(1,0,0,1,840.1999999999999,325) translate(177.505 68.8125)"/><use xlink:href="#l" transform="matrix(1,0,0,1,840.1999999999999,325) translate(64.05499999999999 90.41250000000001)"/><use xlink:href="#m" transform="matrix(1,0,0,1,840.1999999999999,325) translate(145.95499999999998 90.41250000000001)"/><use xlink:href="#i" transform="matrix(1,0,0,1,840.1999999999999,325) translate(75.055 112.01250000000002)"/><path d="M577.6 320l120 80-120 80-120-80z" stroke="#000" stroke-width="2" fill="#fff"/><use xlink:href="#n" transform="matrix(1,0,0,1,462.5999999999999,324.99999999999994) translate(45.08 65.9625)"/><use xlink:href="#o" transform="matrix(1,0,0,1,462.5999999999999,324.99999999999994) translate(90.08 65.9625)"/><use xlink:href="#p" transform="matrix(1,0,0,1,462.5999999999999,324.99999999999994) translate(159.98000000000002 65.9625)"/><use xlink:href="#q" transform="matrix(1,0,0,1,462.5999999999999,324.99999999999994) translate(28.105 87.5625)"/><use xlink:href="#r" transform="matrix(1,0,0,1,462.5999999999999,324.99999999999994) translate(68.055 87.5625)"/><use xlink:href="#s" transform="matrix(1,0,0,1,462.5999999999999,324.99999999999994) translate(142.955 87.5625)"/><use xlink:href="#t" transform="matrix(1,0,0,1,462.5999999999999,324.99999999999994) translate(167.955 87.5625)"/><path d="M577.6 581.6l120 80-120 80-120-80z" stroke="#000" stroke-width="2" fill="#fff"/><use xlink:href="#u" transform="matrix(1,0,0,1,462.5999999999999,586.5999999999999) translate(47.08 65.9625)"/><use xlink:href="#v" transform="matrix(1,0,0,1,462.5999999999999,586.5999999999999) translate(79.03 65.9625)"/><use xlink:href="#w" transform="matrix(1,0,0,1,462.5999999999999,586.5999999999999) translate(117.98 65.9625)"/><use xlink:href="#m" transform="matrix(1,0,0,1,462.5999999999999,586.5999999999999) translate(162.93 65.9625)"/><use xlink:href="#r" transform="matrix(1,0,0,1,462.5999999999999,586.5999999999999) translate(33.55499999999999 87.5625)"/><use xlink:href="#j" transform="matrix(1,0,0,1,462.5999999999999,586.5999999999999) translate(108.455 87.5625)"/><use xlink:href="#x" transform="matrix(1,0,0,1,462.5999999999999,586.5999999999999) translate(151.455 87.5625)"/><path d="M200 581.6l120 80-120 80-120-80z" stroke="#000" stroke-width="2" fill="#fff"/><use xlink:href="#y" transform="matrix(1,0,0,1,85,586.5999999999999) translate(57.57999999999999 56.5875)"/><use xlink:href="#z" transform="matrix(1,0,0,1,85,586.5999999999999) translate(100.53 56.5875)"/><use xlink:href="#A" transform="matrix(1,0,0,1,85,586.5999999999999) translate(115.53 56.5875)"/><use xlink:href="#B" transform="matrix(1,0,0,1,85,586.5999999999999) translate(42.029999999999994 78.1875)"/><use xlink:href="#C" transform="matrix(1,0,0,1,85,586.5999999999999) translate(112.03 78.1875)"/><use xlink:href="#b" transform="matrix(1,0,0,1,85,586.5999999999999) translate(177.98000000000002 78.1875)"/><use xlink:href="#D" transform="matrix(1,0,0,1,85,586.5999999999999) translate(64.53 99.78750000000001)"/><path d="M200 843.2l120 80-120 80-120-80z" stroke="#000" stroke-width="2" fill="#fff"/><use xlink:href="#E" transform="matrix(1,0,0,1,85,848.1999999999998) translate(81.005 56.5875)"/><use xlink:href="#F" transform="matrix(1,0,0,1,85,848.1999999999998) translate(21.62999999999999 78.1875)"/><use xlink:href="#z" transform="matrix(1,0,0,1,85,848.1999999999998) translate(123.48 78.1875)"/><use xlink:href="#G" transform="matrix(1,0,0,1,85,848.1999999999998) translate(138.48000000000002 78.1875)"/><use xlink:href="#H" transform="matrix(1,0,0,1,85,848.1999999999998) translate(84.03 99.78750000000001)"/><path d="M577.6 1104.8l120 80-120 80-120-80z" stroke="#000" stroke-width="2" fill="#fff"/><use xlink:href="#I" transform="matrix(1,0,0,1,462.5999999999999,1109.7999999999997) translate(54.054999999999986 56.5875)"/><use xlink:href="#J" transform="matrix(1,0,0,1,462.5999999999999,1109.7999999999997) translate(111.005 56.5875)"/><use xlink:href="#K" transform="matrix(1,0,0,1,462.5999999999999,1109.7999999999997) translate(23.130000000000003 78.1875)"/><use xlink:href="#L" transform="matrix(1,0,0,1,462.5999999999999,1109.7999999999997) translate(125.93 78.1875)"/><use xlink:href="#M" transform="matrix(1,0,0,1,462.5999999999999,1109.7999999999997) translate(150.93 78.1875)"/><use xlink:href="#s" transform="matrix(1,0,0,1,462.5999999999999,1109.7999999999997) translate(49.07999999999999 99.78750000000001)"/><use xlink:href="#N" transform="matrix(1,0,0,1,462.5999999999999,1109.7999999999997) translate(74.07999999999998 99.78750000000001)"/><path d="M577.6 843.2l120 80-120 80-120-80z" stroke="#000" stroke-width="2" fill="#fff"/><use xlink:href="#I" transform="matrix(1,0,0,1,462.5999999999999,848.1999999999998) translate(57.07999999999999 56.5875)"/><use xlink:href="#O" transform="matrix(1,0,0,1,462.5999999999999,848.1999999999998) translate(114.03 56.5875)"/><use xlink:href="#P" transform="matrix(1,0,0,1,462.5999999999999,848.1999999999998) translate(25.054999999999986 78.1875)"/><use xlink:href="#s" transform="matrix(1,0,0,1,462.5999999999999,848.1999999999998) translate(95.005 78.1875)"/><use xlink:href="#Q" transform="matrix(1,0,0,1,462.5999999999999,848.1999999999998) translate(120.005 78.1875)"/><use xlink:href="#R" transform="matrix(1,0,0,1,462.5999999999999,848.1999999999998) translate(199.955 78.1875)"/><use xlink:href="#S" transform="matrix(1,0,0,1,462.5999999999999,848.1999999999998) translate(77.555 99.78750000000001)"/><path d="M200 1930l120 80-120 80-120-80z" stroke="#000" stroke-width="2" fill="#fff"/><use xlink:href="#T" transform="matrix(1,0,0,1,85,1934.9981495748448) translate(34.10499999999999 65.9625)"/><use xlink:href="#r" transform="matrix(1,0,0,1,85,1934.9981495748448) translate(71.10499999999999 65.9625)"/><use xlink:href="#U" transform="matrix(1,0,0,1,85,1934.9981495748448) translate(146.005 65.9625)"/><use xlink:href="#V" transform="matrix(1,0,0,1,85,1934.9981495748448) translate(51.230000000000004 87.5625)"/><use xlink:href="#W" transform="matrix(1,0,0,1,85,1934.9981495748448) translate(76.23 87.5625)"/><use xlink:href="#X" transform="matrix(1,0,0,1,85,1934.9981495748448) translate(126.18 87.5625)"/><path d="M577.6 1660l120 80-120 80-120-80z" stroke="#000" stroke-width="2" fill="#fff"/><use xlink:href="#y" transform="matrix(1,0,0,1,462.5999999999998,1665) translate(43.55500000000001 65.9625)"/><use xlink:href="#Y" transform="matrix(1,0,0,1,462.5999999999998,1665) translate(86.50500000000001 65.9625)"/><use xlink:href="#Z" transform="matrix(1,0,0,1,462.5999999999998,1665) translate(101.50500000000001 65.9625)"/><use xlink:href="#aa" transform="matrix(1,0,0,1,462.5999999999998,1665) translate(111.50500000000001 65.9625)"/><use xlink:href="#ab" transform="matrix(1,0,0,1,462.5999999999998,1665) translate(142.45499999999998 65.9625)"/><use xlink:href="#ac" transform="matrix(1,0,0,1,462.5999999999998,1665) translate(157.45499999999998 65.9625)"/><use xlink:href="#ad" transform="matrix(1,0,0,1,462.5999999999998,1665) translate(87.53 87.5625)"/><path d="M200 1660l120 80-120 80-120-80z" stroke="#000" stroke-width="2" fill="#fff"/><use xlink:href="#ae" transform="matrix(1,0,0,1,85,1665) translate(73.53 51.9)"/><use xlink:href="#af" transform="matrix(1,0,0,1,85,1665) translate(101.48 51.9)"/><use xlink:href="#ag" transform="matrix(1,0,0,1,85,1665) translate(44.03 73.5)"/><use xlink:href="#j" transform="matrix(1,0,0,1,85,1665) translate(98.98 73.5)"/><use xlink:href="#ah" transform="matrix(1,0,0,1,85,1665) translate(141.98000000000002 73.5)"/><use xlink:href="#R" transform="matrix(1,0,0,1,85,1665) translate(180.98000000000002 73.5)"/><use xlink:href="#ai" transform="matrix(1,0,0,1,85,1665) translate(76.005 95.10000000000001)"/><use xlink:href="#aj" transform="matrix(1,0,0,1,85,1665) translate(134.005 95.10000000000001)"/><use xlink:href="#i" transform="matrix(1,0,0,1,85,1665) translate(75.05499999999999 116.70000000000002)"/><path d="M577.6 1366.4l131.2 80-131.2 80-131.2-80z" stroke="#000" stroke-width="2" fill="#fff"/><use xlink:href="#u" transform="matrix(1,0,0,1,451.39999999999975,1371.3999999999996) translate(93.05499999999999 42.525)"/><use xlink:href="#ak" transform="matrix(1,0,0,1,451.39999999999975,1371.3999999999996) translate(125.005 42.525)"/><use xlink:href="#al" transform="matrix(1,0,0,1,451.39999999999975,1371.3999999999996) translate(48.07999999999999 64.125)"/><use xlink:href="#j" transform="matrix(1,0,0,1,451.39999999999975,1371.3999999999996) translate(107.92999999999999 64.125)"/><use xlink:href="#am" transform="matrix(1,0,0,1,451.39999999999975,1371.3999999999996) translate(150.93 64.125)"/><use xlink:href="#an" transform="matrix(1,0,0,1,451.39999999999975,1371.3999999999996) translate(25.17999999999999 85.72500000000001)"/><use xlink:href="#ao" transform="matrix(1,0,0,1,451.39999999999975,1371.3999999999996) translate(140.98 85.72500000000001)"/><use xlink:href="#ap" transform="matrix(1,0,0,1,451.39999999999975,1371.3999999999996) translate(155.98 85.72500000000001)"/><use xlink:href="#Z" transform="matrix(1,0,0,1,451.39999999999975,1371.3999999999996) translate(71.03 107.32500000000002)"/><use xlink:href="#D" transform="matrix(1,0,0,1,451.39999999999975,1371.3999999999996) translate(81.03 107.32500000000002)"/><path d="M840 2220l120 80-120 80-120-80z" stroke="#000" stroke-width="2" fill="#fff"/><use xlink:href="#aq" transform="matrix(1,0,0,1,725,2225) translate(40.129999999999995 65.9625)"/><use xlink:href="#ar" transform="matrix(1,0,0,1,725,2225) translate(56.129999999999995 65.9625)"/><use xlink:href="#as" transform="matrix(1,0,0,1,725,2225) translate(121.03 65.9625)"/><use xlink:href="#at" transform="matrix(1,0,0,1,725,2225) translate(169.88 65.9625)"/><use xlink:href="#au" transform="matrix(1,0,0,1,725,2225) translate(35.08 87.5625)"/><use xlink:href="#av" transform="matrix(1,0,0,1,725,2225) translate(104.98 87.5625)"/><path d="M420 2220l120 80-120 80-120-80z" stroke="#000" stroke-width="2" fill="#fff"/><use xlink:href="#aw" transform="matrix(1,0,0,1,305,2225) translate(92.05499999999999 24.41)"/><use xlink:href="#z" transform="matrix(1,0,0,1,305,2225) translate(80.555 46.01)"/><use xlink:href="#ax" transform="matrix(1,0,0,1,305,2225) translate(95.55499999999999 46.01)"/><use xlink:href="#W" transform="matrix(1,0,0,1,305,2225) translate(35.80499999999999 67.61)"/><use xlink:href="#ay" transform="matrix(1,0,0,1,305,2225) translate(85.755 67.61)"/><use xlink:href="#az" transform="matrix(1,0,0,1,305,2225) translate(133.355 67.61)"/><use xlink:href="#V" transform="matrix(1,0,0,1,305,2225) translate(59.53 89.21000000000001)"/><use xlink:href="#aA" transform="matrix(1,0,0,1,305,2225) translate(84.53 89.21000000000001)"/><use xlink:href="#at" transform="matrix(1,0,0,1,305,2225) translate(150.48000000000002 89.21000000000001)"/><use xlink:href="#D" transform="matrix(1,0,0,1,305,2225) translate(64.53 110.81)"/><path d="M577.6 1930l130 80-130 80-130-80z" stroke="#000" stroke-width="2" fill="#fff"/><use xlink:href="#aB" transform="matrix(1,0,0,1,452.60000000000014,1934.9981495748448) translate(32.55500000000001 70.65)"/><use xlink:href="#j" transform="matrix(1,0,0,1,452.60000000000014,1934.9981495748448) translate(96.555 70.65)"/><use xlink:href="#aC" transform="matrix(1,0,0,1,452.60000000000014,1934.9981495748448) translate(139.555 70.65)"/><use xlink:href="#aD" transform="matrix(1,0,0,1,452.60000000000014,1934.9981495748448) translate(34.23000000000001 92.25)"/><use xlink:href="#ab" transform="matrix(1,0,0,1,452.60000000000014,1934.9981495748448) translate(69.23 92.25)"/><use xlink:href="#W" transform="matrix(1,0,0,1,452.60000000000014,1934.9981495748448) translate(84.23 92.25)"/><use xlink:href="#ay" transform="matrix(1,0,0,1,452.60000000000014,1934.9981495748448) translate(134.18 92.25)"/><use xlink:href="#aE" transform="matrix(1,0,0,1,452.60000000000014,1934.9981495748448) translate(181.77999999999997 92.25)"/><use xlink:href="#aF" transform="matrix(1,0,0,1,452.60000000000014,1934.9981495748448) translate(71.03 113.85)"/><path d="M1260 2220l120 80-120 80-120-80z" stroke="#000" stroke-width="2" fill="#fff"/><use xlink:href="#aG" transform="matrix(1,0,0,1,1145,2225) translate(108.005 14.4)"/><use xlink:href="#aH" transform="matrix(1,0,0,1,1145,2225) translate(70.08 38.410000000000004)"/><use xlink:href="#aI" transform="matrix(1,0,0,1,1145,2225) translate(46.07999999999999 60.01)"/><use xlink:href="#z" transform="matrix(1,0,0,1,1145,2225) translate(61.07999999999999 60.01)"/><use xlink:href="#aJ" transform="matrix(1,0,0,1,1145,2225) translate(76.07999999999998 60.01)"/><use xlink:href="#aK" transform="matrix(1,0,0,1,1145,2225) translate(35.58 81.61000000000001)"/><use xlink:href="#aL" transform="matrix(1,0,0,1,1145,2225) translate(86.47999999999999 81.61000000000001)"/><use xlink:href="#aM" transform="matrix(1,0,0,1,1145,2225) translate(160.48 81.61000000000001)"/><use xlink:href="#W" transform="matrix(1,0,0,1,1145,2225) translate(63.73 103.21000000000001)"/><use xlink:href="#X" transform="matrix(1,0,0,1,1145,2225) translate(113.68 103.21000000000001)"/><path d="M1260 865.6l120 80-120 80-120-80z" stroke="#000" stroke-width="2" fill="#fff"/><use xlink:href="#u" transform="matrix(1,0,0,1,1145,870.5962991496904) translate(38.08 65.9625)"/><use xlink:href="#v" transform="matrix(1,0,0,1,1145,870.5962991496904) translate(70.03 65.9625)"/><use xlink:href="#w" transform="matrix(1,0,0,1,1145,870.5962991496904) translate(108.98 65.9625)"/><use xlink:href="#aN" transform="matrix(1,0,0,1,1145,870.5962991496904) translate(153.93 65.9625)"/><use xlink:href="#aO" transform="matrix(1,0,0,1,1145,870.5962991496904) translate(83.005 87.5625)"/><path d="M1680 865.6l120 80-120 80-120-80z" stroke="#000" stroke-width="2" fill="#fff"/><use xlink:href="#n" transform="matrix(1,0,0,1,1565,870.5962991496904) translate(50.555 61.275)"/><use xlink:href="#aP" transform="matrix(1,0,0,1,1565,870.5962991496904) translate(95.55499999999999 61.275)"/><use xlink:href="#aQ" transform="matrix(1,0,0,1,1565,870.5962991496904) translate(32.605000000000004 82.875)"/><use xlink:href="#q" transform="matrix(1,0,0,1,1565,870.5962991496904) translate(62.55500000000001 82.875)"/><use xlink:href="#r" transform="matrix(1,0,0,1,1565,870.5962991496904) translate(102.50500000000001 82.875)"/><use xlink:href="#at" transform="matrix(1,0,0,1,1565,870.5962991496904) translate(177.405 82.875)"/><use xlink:href="#t" transform="matrix(1,0,0,1,1565,870.5962991496904) translate(98.03 104.475)"/><path d="M1680 1118.4l120 80-120 80-120-80z" stroke="#000" stroke-width="2" fill="#fff"/><use xlink:href="#y" transform="matrix(1,0,0,1,1565,1123.3944487245356) translate(50.57999999999999 56.5875)"/><use xlink:href="#aa" transform="matrix(1,0,0,1,1565,1123.3944487245356) translate(93.53 56.5875)"/><use xlink:href="#ab" transform="matrix(1,0,0,1,1565,1123.3944487245356) translate(124.48 56.5875)"/><use xlink:href="#aR" transform="matrix(1,0,0,1,1565,1123.3944487245356) translate(139.48000000000002 56.5875)"/><use xlink:href="#h" transform="matrix(1,0,0,1,1565,1123.3944487245356) translate(28.555 78.1875)"/><use xlink:href="#r" transform="matrix(1,0,0,1,1565,1123.3944487245356) translate(53.555 78.1875)"/><use xlink:href="#aD" transform="matrix(1,0,0,1,1565,1123.3944487245356) translate(128.45499999999998 78.1875)"/><use xlink:href="#aN" transform="matrix(1,0,0,1,1565,1123.3944487245356) translate(163.45499999999998 78.1875)"/><use xlink:href="#aO" transform="matrix(1,0,0,1,1565,1123.3944487245356) translate(83.005 99.78750000000001)"/><path d="M1680 2220l120 80-120 80-120-80z" stroke="#000" stroke-width="2" fill="#fff"/><use xlink:href="#aS" transform="matrix(1,0,0,1,1565,2225) translate(30.679999999999986 80.025)"/><use xlink:href="#aT" transform="matrix(1,0,0,1,1565,2225) translate(128.48000000000002 80.025)"/><path d="M955.2 262.2v38.1" stroke="#000" stroke-width="2" fill="none"/><path d="M956.2 262.23h-2v-1.7l1 .67 1-.66z"/><path d="M955.2 315.56l-4.64-14.26h9.28z" stroke="#000" stroke-width="2"/><path d="M1249.8 480.33h-2V401h-20.03v-2h22.03zM1078 401v-2h118.87v2z"/><path d="M1078.03 401h-2.53l1.5-1-1.5-1h2.53zM1248.8 495.6l-4.64-14.27h9.28z"/><path d="M1248.8 498.83l-6-18.5h12zm-3.26-16.5l3.26 10.03 3.26-10.03z"/><g><use xlink:href="#aU" transform="matrix(1,0,0,1,1196.8657679552784,389.2) translate(0 14.4)"/></g><path d="M749.92 401H717.9v-2h32.02zm82.48 0h-49.52v-2h49.52z"/><path d="M833.4 400l1.5 1h-2.53v-2h2.53zM716.9 404.64L702.64 400l14.26-4.64z"/><path d="M717.9 406l-18.5-6 18.5-6zm-12.03-6l10.03 3.26v-6.52z"/><g><use xlink:href="#aV" transform="matrix(1,0,0,1,749.9249999999998,389.2) translate(0 14.4)"/></g><path d="M578.6 561.9h-2v-20.3h2zm0-41.9h-2v-37.8h2z"/><path d="M578.6 482.23h-2v-1.7l1 .67 1-.66zM577.6 577.16l-4.64-14.26h9.28z"/><path d="M577.6 580.4l-6-18.5h12zm-3.26-16.5l3.26 10.03 3.26-10.03z"/><g><use xlink:href="#aU" transform="matrix(1,0,0,1,562.1499999999999,520) translate(0 14.4)"/></g><path d="M372.32 401h-32v-2h32zm82.48 0h-49.53v-2h49.53z"/><path d="M455.8 400l1.5 1h-2.53v-2h2.53zM339.3 404.64L325.05 400l14.27-4.64z"/><path d="M340.3 406l-18.5-6 18.5-6zm-12.02-6l10.03 3.26v-6.52z"/><g><use xlink:href="#aV" transform="matrix(1,0,0,1,372.32499999999993,389.19999999999993) translate(0 14.4)"/></g><path d="M200 320l120 80-120 80-120-80z" stroke="#000" stroke-width="2" fill="#fff"/><g><use xlink:href="#y" transform="matrix(1,0,0,1,85,325) translate(31.55499999999999 65.9625)"/><use xlink:href="#ab" transform="matrix(1,0,0,1,85,325) translate(74.505 65.9625)"/><use xlink:href="#w" transform="matrix(1,0,0,1,85,325) translate(89.505 65.9625)"/><use xlink:href="#aD" transform="matrix(1,0,0,1,85,325) translate(134.455 65.9625)"/><use xlink:href="#aW" transform="matrix(1,0,0,1,85,325) translate(169.455 65.9625)"/><use xlink:href="#r" transform="matrix(1,0,0,1,85,325) translate(55.05499999999999 87.5625)"/><use xlink:href="#x" transform="matrix(1,0,0,1,85,325) translate(129.95499999999998 87.5625)"/></g><path d="M200 482.2v79.7" stroke="#000" stroke-width="2" fill="none"/><path d="M201 482.23h-2v-1.7l1 .67 1-.66z"/><path d="M200 577.16l-4.64-14.26h9.28z" stroke="#000" stroke-width="2"/><path d="M454.8 661.6H340.3" stroke="#000" stroke-width="2" fill="none"/><path d="M455.8 661.6l1.5 1h-2.53v-2h2.53z"/><path d="M325.04 661.6l14.26-4.64v9.28z" stroke="#000" stroke-width="2"/><path d="M200 743.8v79.7" stroke="#000" stroke-width="2" fill="none"/><path d="M201 743.83h-2v-1.7l1 .67 1-.66z"/><path d="M200 838.76l-4.64-14.26h9.28z" stroke="#000" stroke-width="2"/><path d="M322.8 923.2h114.5" stroke="#000" stroke-width="2" fill="none"/><path d="M322.83 924.2h-2.53l1.5-1-1.5-1h2.53z"/><path d="M452.56 923.2l-14.26 4.64v-9.28z" stroke="#000" stroke-width="2"/><path d="M322.8 1740h114.5" stroke="#000" stroke-width="2" fill="none"/><path d="M322.83 1741h-2.53l1.5-1-1.5-1h2.53z"/><path d="M452.56 1740l-14.26 4.64v-9.28z" stroke="#000" stroke-width="2"/><path d="M368.3 2011h-45.5v-2h45.5zm58.9 0h-28v-2h28z"/><path d="M322.83 2011h-2.53l1.5-1-1.5-1h2.53zM442.46 2010l-14.27 4.63v-9.27z"/><path d="M445.7 2010l-18.5 6v-12zm-16.5 3.26l10.02-3.26-10.03-3.26z"/><g><use xlink:href="#aU" transform="matrix(1,0,0,1,368.2973667237115,1999.1981495748448) translate(0 14.4)"/></g><path d="M201 2299h78.7v2H199v-45.5h2zm0-65.1h-2v-141.7h2z"/><path d="M201 2092.23h-2v-1.7l1 .67 1-.67zM294.96 2300l-14.26 4.64v-9.28z"/><path d="M298.2 2300l-18.5 6v-12zm-16.5 3.26l10.03-3.26-10.03-3.26z"/><g><use xlink:href="#aV" transform="matrix(1,0,0,1,183.525,2233.8986121811336) translate(0 14.4)"/></g><path d="M577.6 2092.17V2155H420v45.3" stroke="#000" stroke-width="2" fill="none"/><path d="M578.6 2092.2h-2v-1.64l1 .6 1-.6z"/><path d="M420 2215.56l-4.64-14.26h9.28z" stroke="#000" stroke-width="2"/><path d="M542.8 2300h156.9" stroke="#000" stroke-width="2" fill="none"/><path d="M542.83 2301h-2.53l1.5-1-1.5-1h2.53z"/><path d="M714.96 2300l-14.26 4.64v-9.28z" stroke="#000" stroke-width="2"/><path d="M962.8 2300h156.9" stroke="#000" stroke-width="2" fill="none"/><path d="M962.83 2301h-2.53l1.5-1-1.5-1h2.53z"/><path d="M1134.96 2300l-14.26 4.64v-9.28z" stroke="#000" stroke-width="2"/><path d="M1248.8 500l131.2 80-131.2 80-131.2-80z" stroke="#000" stroke-width="2" fill="#fff"/><g><use xlink:href="#u" transform="matrix(1,0,0,1,1122.6,505) translate(93.05499999999999 42.525)"/><use xlink:href="#ak" transform="matrix(1,0,0,1,1122.6,505) translate(125.005 42.525)"/><use xlink:href="#al" transform="matrix(1,0,0,1,1122.6,505) translate(48.07999999999999 64.125)"/><use xlink:href="#j" transform="matrix(1,0,0,1,1122.6,505) translate(107.92999999999999 64.125)"/><use xlink:href="#am" transform="matrix(1,0,0,1,1122.6,505) translate(150.93 64.125)"/><use xlink:href="#an" transform="matrix(1,0,0,1,1122.6,505) translate(25.17999999999999 85.72500000000001)"/><use xlink:href="#ao" transform="matrix(1,0,0,1,1122.6,505) translate(140.98 85.72500000000001)"/><use xlink:href="#ap" transform="matrix(1,0,0,1,1122.6,505) translate(155.98 85.72500000000001)"/><use xlink:href="#Z" transform="matrix(1,0,0,1,1122.6,505) translate(71.03 107.32500000000002)"/><use xlink:href="#D" transform="matrix(1,0,0,1,1122.6,505) translate(81.03 107.32500000000002)"/></g><path d="M1382.8 2300h156.9" stroke="#000" stroke-width="2" fill="none"/><path d="M1382.83 2301h-2.53l1.5-1-1.5-1h2.53z"/><path d="M1554.96 2300l-14.26 4.64v-9.28z" stroke="#000" stroke-width="2"/><path d="M200 1104.8l120 80-120 80-120-80z" stroke="#000" stroke-width="2" fill="#fff"/><g><use xlink:href="#aX" transform="matrix(1,0,0,1,85,1109.7999999999997) translate(76.505 47.2125)"/><use xlink:href="#aN" transform="matrix(1,0,0,1,85,1109.7999999999997) translate(115.505 47.2125)"/><use xlink:href="#aY" transform="matrix(1,0,0,1,85,1109.7999999999997) translate(56.53 68.8125)"/><use xlink:href="#aZ" transform="matrix(1,0,0,1,85,1109.7999999999997) translate(109.48 68.8125)"/><use xlink:href="#F" transform="matrix(1,0,0,1,85,1109.7999999999997) translate(41.129999999999995 90.41250000000001)"/><use xlink:href="#ba" transform="matrix(1,0,0,1,85,1109.7999999999997) translate(142.98000000000002 90.41250000000001)"/><use xlink:href="#bb" transform="matrix(1,0,0,1,85,1109.7999999999997) translate(71.57999999999998 112.01250000000002)"/></g><path d="M578.6 1346.73h-2v-20.3h2zm0-41.9h-2V1267h2z"/><path d="M578.6 1267.03h-2v-1.7l1 .67 1-.66zM577.6 1362l-4.64-14.27h9.28z"/><path d="M577.6 1365.23l-6-18.5h12zm-3.26-16.5l3.26 10.03 3.26-10.03z"/><g><use xlink:href="#aV" transform="matrix(1,0,0,1,561.1249999999999,1304.8153053489896) translate(0 14.4)"/></g><path d="M577.6 1528.57v64.6H200v47.13" stroke="#000" stroke-width="2" fill="none"/><path d="M577.6 1527.57l1-.6v1.63h-2v-1.64z"/><path d="M200 1655.56l-4.64-14.26h9.28z" stroke="#000" stroke-width="2"/><path d="M577.6 1822.2v52.8H200v35.3" stroke="#000" stroke-width="2" fill="none"/><path d="M578.6 1822.23h-2v-1.7l1 .67 1-.66z"/><path d="M200 1925.56l-4.64-14.27h9.28z" stroke="#000" stroke-width="2"/><path d="M1680 360l120 80-120 80-120-80z" stroke="#000" stroke-width="2" fill="#fff"/><g><use xlink:href="#ae" transform="matrix(1,0,0,1,1565,365) translate(73.53 51.9)"/><use xlink:href="#af" transform="matrix(1,0,0,1,1565,365) translate(101.48 51.9)"/><use xlink:href="#ag" transform="matrix(1,0,0,1,1565,365) translate(44.03 73.5)"/><use xlink:href="#j" transform="matrix(1,0,0,1,1565,365) translate(98.98 73.5)"/><use xlink:href="#ah" transform="matrix(1,0,0,1,1565,365) translate(141.98000000000002 73.5)"/><use xlink:href="#R" transform="matrix(1,0,0,1,1565,365) translate(180.98000000000002 73.5)"/><use xlink:href="#ai" transform="matrix(1,0,0,1,1565,365) translate(76.005 95.10000000000001)"/><use xlink:href="#aj" transform="matrix(1,0,0,1,1565,365) translate(134.005 95.10000000000001)"/><use xlink:href="#i" transform="matrix(1,0,0,1,1565,365) translate(75.05499999999999 116.70000000000002)"/></g><path d="M1382.92 580h87.14V440h69.64" stroke="#000" stroke-width="2" fill="none"/><path d="M1382.95 581h-2.67l1.64-1-1.64-1h2.67z"/><path d="M1554.96 440l-14.26 4.64v-9.28z" stroke="#000" stroke-width="2"/><path d="M1680 612.8l120 80-120 80-120-80z" stroke="#000" stroke-width="2" fill="#fff"/><g><use xlink:href="#y" transform="matrix(1,0,0,1,1565,617.7981495748453) translate(43.55500000000001 65.9625)"/><use xlink:href="#Y" transform="matrix(1,0,0,1,1565,617.7981495748453) translate(86.50500000000001 65.9625)"/><use xlink:href="#Z" transform="matrix(1,0,0,1,1565,617.7981495748453) translate(101.50500000000001 65.9625)"/><use xlink:href="#aa" transform="matrix(1,0,0,1,1565,617.7981495748453) translate(111.50500000000001 65.9625)"/><use xlink:href="#ab" transform="matrix(1,0,0,1,1565,617.7981495748453) translate(142.45499999999998 65.9625)"/><use xlink:href="#ac" transform="matrix(1,0,0,1,1565,617.7981495748453) translate(157.45499999999998 65.9625)"/><use xlink:href="#ad" transform="matrix(1,0,0,1,1565,617.7981495748453) translate(87.53 87.5625)"/></g><path d="M1680 522.2v70.9" stroke="#000" stroke-width="2" fill="none"/><path d="M1681 522.23h-2v-1.7l1 .67 1-.66z"/><path d="M1680 608.36l-4.64-14.27h9.28z" stroke="#000" stroke-width="2"/><path d="M1680 775v70.9" stroke="#000" stroke-width="2" fill="none"/><path d="M1681 775.03h-2v-1.7l1 .67 1-.67z"/><path d="M1680 861.16l-4.64-14.27h9.28z" stroke="#000" stroke-width="2"/><path d="M1454.55 946.6h-54.25v-2h54.25zm102.65 0h-71.75v-2h71.75z"/><path d="M1558.2 945.6l1.5 1h-2.53v-2h2.53zM1399.3 950.23l-14.26-4.63 14.26-4.64z"/><path d="M1400.3 951.6l-18.5-6 18.5-6.02zm-12.03-6l10.03 3.26v-6.52z"/><g><use xlink:href="#aU" transform="matrix(1,0,0,1,1454.55,934.7962991496904) translate(0 14.4)"/></g><path d="M1681 1098.7h-2v-15.9h2zm0-37.5h-2v-33.4h2z"/><path d="M1681 1027.82h-2v-1.7l1 .68 1-.67zM1680 1113.96l-4.64-14.27h9.28z"/><path d="M1680 1117.2l-6-18.5h12zm-3.26-16.5l3.26 10.02 3.26-10.03z"/><g><use xlink:href="#aV" transform="matrix(1,0,0,1,1663.525,1061.1953739371131) translate(0 14.4)"/></g><path d="M1261 1621.8h420v578.5h-2v-576.5h-420v-596h2z"/><path d="M1261 1027.82h-2v-1.7l1 .68 1-.67zM1680 2215.56l-4.64-14.26h9.28z"/><path d="M1680 2218.8l-6-18.5h12zm-3.26-16.5l3.26 10.03 3.26-10.03z"/><path d="M1680 1280.6v400.68" stroke="#000" stroke-width="2" fill="none"/><path d="M1681 1280.62h-2v-1.7l1 .68 1-.67z"/><path d="M1680 1696.55l-4.64-14.27h9.28z" stroke="#000" stroke-width="2"/><path d="M577.6 1005.4v79.7" stroke="#000" stroke-width="2" fill="none"/><path d="M577.6 1004.4l1-.66v1.7h-2v-1.7z"/><path d="M577.6 1100.36l-4.64-14.26h9.28z" stroke="#000" stroke-width="2"/><path d="M373.35 1185.8H340.3v-2h33.05zm81.45 0h-50.55v-2h50.55z"/><path d="M455.8 1184.8l1.5 1h-2.53v-2h2.53zM339.3 1189.44l-14.26-4.64 14.26-4.64z"/><path d="M340.3 1190.8l-18.5-6 18.5-6zm-12.03-6l10.03 3.26v-6.52z"/><g><use xlink:href="#aU" transform="matrix(1,0,0,1,373.34999999999997,1173.9999999999998) translate(0 14.4)"/></g><path d="M200 1267v179.4h225.98" stroke="#000" stroke-width="2" fill="none"/><path d="M201 1267.03h-2v-1.7l1 .67 1-.66z"/><path d="M441.24 1446.4l-14.26 4.64v-9.28z" stroke="#000" stroke-width="2"/><path d="M1716 2440c13.25 0 24 13.43 24 30s-10.75 30-24 30h-72c-13.25 0-24-13.43-24-30s10.75-30 24-30z" stroke="#000" stroke-opacity="0" stroke-width="2" fill="#333"/><g><use xlink:href="#bc" transform="matrix(1,0,0,1,1625,2445) translate(40.075 30.025)"/></g><path d="M1680 2382.2v39.3" stroke="#000" stroke-width="2" fill="none"/><path d="M1681 2382.23h-2v-1.7l1 .67 1-.66z"/><path d="M1680 2436.76l-4.64-14.26h9.28z" stroke="#000" stroke-width="2"/><path d="M955.2 262.2v38.1M955.2 262.23v-1.03" stroke="#000" stroke-width="2" fill="none"/><path d="M955.2 315.56l-4.64-14.26h9.28z" stroke="#000" stroke-width="2"/><path d="M955.2 21v59.3M955.2 21.03V20" stroke="#000" stroke-width="2" fill="none"/><path d="M955.2 95.56l-4.64-14.26h9.28z" stroke="#000" stroke-width="2"/><defs><path d="M30-248c118-7 216 8 213 122C240-48 200 0 122 0H30v-248zM63-27c89 8 146-16 146-99s-60-101-146-95v194" id="bd"/><path d="M84 4C-5 8 30-112 23-190h32v120c0 31 7 50 39 49 72-2 45-101 50-169h31l1 190h-30c-1-10 1-25-2-33-11 22-28 36-60 37" id="be"/><path d="M114-163C36-179 61-72 57 0H25l-1-190h30c1 12-1 29 2 39 6-27 23-49 58-41v29" id="bf"/><path d="M141-36C126-15 110 5 73 4 37 3 15-17 15-53c-1-64 63-63 125-63 3-35-9-54-41-54-24 1-41 7-42 31l-33-3c5-37 33-52 76-52 45 0 72 20 72 64v82c-1 20 7 32 28 27v20c-31 9-61-2-59-35zM48-53c0 20 12 33 32 33 41-3 63-29 60-74-43 2-92-5-92 41" id="bg"/><path d="M117-194c89-4 53 116 60 194h-32v-121c0-31-8-49-39-48C34-167 62-67 57 0H25l-1-190h30c1 10-1 24 2 32 11-22 29-35 61-36" id="bh"/><path d="M59-47c-2 24 18 29 38 22v24C64 9 27 4 27-40v-127H5v-23h24l9-43h21v43h35v23H59v120" id="bi"/><path d="M100-194c63 0 86 42 84 106H49c0 40 14 67 53 68 26 1 43-12 49-29l28 8c-11 28-37 45-77 45C44 4 14-33 15-96c1-61 26-98 85-98zm52 81c6-60-76-77-97-28-3 7-6 17-6 28h103" id="bj"/><g id="a"><use transform="matrix(0.05,0,0,0.05,0,0)" xlink:href="#bd"/><use transform="matrix(0.05,0,0,0.05,12.950000000000001,0)" xlink:href="#be"/><use transform="matrix(0.05,0,0,0.05,22.950000000000003,0)" xlink:href="#bf"/><use transform="matrix(0.05,0,0,0.05,28.900000000000002,0)" xlink:href="#bg"/><use transform="matrix(0.05,0,0,0.05,38.900000000000006,0)" xlink:href="#bh"/><use transform="matrix(0.05,0,0,0.05,48.900000000000006,0)" xlink:href="#bi"/><use transform="matrix(0.05,0,0,0.05,53.900000000000006,0)" xlink:href="#bj"/></g><use transform="matrix(0.05,0,0,0.05,0,0)" xlink:href="#bg" id="b"/><path d="M145-31C134-9 116 4 85 4 32 4 16-35 15-94c0-59 17-99 70-100 32-1 48 14 60 33 0-11-1-24 2-32h30l-1 268h-32zM93-21c41 0 51-33 51-76s-8-73-50-73c-40 0-46 35-46 75s5 74 45 74" id="bk"/><path d="M68-38c1 34 0 65-14 84H32c9-13 17-26 17-46H33v-38h35" id="bl"/><g id="c"><use transform="matrix(0.05,0,0,0.05,0,0)" xlink:href="#bk"/><use transform="matrix(0.05,0,0,0.05,10,0)" xlink:href="#be"/><use transform="matrix(0.05,0,0,0.05,20,0)" xlink:href="#bg"/><use transform="matrix(0.05,0,0,0.05,30,0)" xlink:href="#bf"/><use transform="matrix(0.05,0,0,0.05,35.95,0)" xlink:href="#bj"/><use transform="matrix(0.05,0,0,0.05,45.95,0)" xlink:href="#bh"/><use transform="matrix(0.05,0,0,0.05,55.95,0)" xlink:href="#bi"/><use transform="matrix(0.05,0,0,0.05,60.95,0)" xlink:href="#bj"/><use transform="matrix(0.05,0,0,0.05,70.95,0)" xlink:href="#bh"/><use transform="matrix(0.05,0,0,0.05,80.95,0)" xlink:href="#bg"/><use transform="matrix(0.05,0,0,0.05,90.95,0)" xlink:href="#bl"/></g><path d="M24 0v-261h32V0H24" id="bm"/><path d="M177-190C167-65 218 103 67 71c-23-6-38-20-44-43l32-5c15 47 100 32 89-28v-30C133-14 115 1 83 1 29 1 15-40 15-95c0-56 16-97 71-98 29-1 48 16 59 35 1-10 0-23 2-32h30zM94-22c36 0 50-32 50-73 0-42-14-75-50-75-39 0-46 34-46 75s6 73 46 73" id="bn"/><path d="M210-169c-67 3-38 105-44 169h-31v-121c0-29-5-50-35-48C34-165 62-65 56 0H25l-1-190h30c1 10-1 24 2 32 10-44 99-50 107 0 11-21 27-35 58-36 85-2 47 119 55 194h-31v-121c0-29-5-49-35-48" id="bo"/><g id="d"><use transform="matrix(0.05,0,0,0.05,0,0)" xlink:href="#bg"/><use transform="matrix(0.05,0,0,0.05,10,0)" xlink:href="#bm"/><use transform="matrix(0.05,0,0,0.05,13.949999999999998,0)" xlink:href="#bn"/><use transform="matrix(0.05,0,0,0.05,23.95,0)" xlink:href="#be"/><use transform="matrix(0.05,0,0,0.05,33.95,0)" xlink:href="#bo"/></g><path d="M101-234c-31-9-42 10-38 44h38v23H63V0H32v-167H5v-23h27c-7-52 17-82 69-68v24" id="bp"/><path d="M24-231v-30h32v30H24zM24 0v-190h32V0H24" id="bq"/><g id="e"><use transform="matrix(0.05,0,0,0.05,0,0)" xlink:href="#bp"/><use transform="matrix(0.05,0,0,0.05,5,0)" xlink:href="#bg"/><use transform="matrix(0.05,0,0,0.05,15,0)" xlink:href="#bo"/><use transform="matrix(0.05,0,0,0.05,29.950000000000003,0)" xlink:href="#bq"/><use transform="matrix(0.05,0,0,0.05,33.900000000000006,0)" xlink:href="#bm"/><use transform="matrix(0.05,0,0,0.05,37.85000000000001,0)" xlink:href="#bq"/><use transform="matrix(0.05,0,0,0.05,41.80000000000001,0)" xlink:href="#bg"/><use transform="matrix(0.05,0,0,0.05,51.80000000000001,0)" xlink:href="#bf"/></g><path d="M100-194c62-1 85 37 85 99 1 63-27 99-86 99S16-35 15-95c0-66 28-99 85-99zM99-20c44 1 53-31 53-75 0-43-8-75-51-75s-53 32-53 75 10 74 51 75" id="br"/><g id="f"><use transform="matrix(0.05,0,0,0.05,0,0)" xlink:href="#bp"/><use transform="matrix(0.05,0,0,0.05,5,0)" xlink:href="#br"/><use transform="matrix(0.05,0,0,0.05,15,0)" xlink:href="#bq"/></g><path d="M85-194c31 0 48 13 60 33l-1-100h32l1 261h-30c-2-10 0-23-3-31C134-8 116 4 85 4 32 4 16-35 15-94c0-66 23-100 70-100zm9 24c-40 0-46 34-46 75 0 40 6 74 45 74 42 0 51-32 51-76 0-42-9-74-50-73" id="bs"/><path d="M135-143c-3-34-86-38-87 0 15 53 115 12 119 90S17 21 10-45l28-5c4 36 97 45 98 0-10-56-113-15-118-90-4-57 82-63 122-42 12 7 21 19 24 35" id="bt"/><g id="g"><use transform="matrix(0.05,0,0,0.05,0,0)" xlink:href="#bs"/><use transform="matrix(0.05,0,0,0.05,10,0)" xlink:href="#bj"/><use transform="matrix(0.05,0,0,0.05,20,0)" xlink:href="#bt"/><use transform="matrix(0.05,0,0,0.05,29,0)" xlink:href="#bm"/><use transform="matrix(0.05,0,0,0.05,32.95,0)" xlink:href="#bq"/><use transform="matrix(0.05,0,0,0.05,36.900000000000006,0)" xlink:href="#bn"/><use transform="matrix(0.05,0,0,0.05,46.900000000000006,0)" xlink:href="#bg"/><use transform="matrix(0.05,0,0,0.05,56.900000000000006,0)" xlink:href="#bs"/><use transform="matrix(0.05,0,0,0.05,66.9,0)" xlink:href="#br"/></g><g id="h"><use transform="matrix(0.05,0,0,0.05,0,0)" xlink:href="#bs"/><use transform="matrix(0.05,0,0,0.05,10,0)" xlink:href="#bg"/></g><path d="M115-194c55 1 70 41 70 98S169 2 115 4C84 4 66-9 55-30l1 105H24l-1-265h31l2 30c10-21 28-34 59-34zm-8 174c40 0 45-34 45-75s-6-73-45-74c-42 0-51 32-51 76 0 43 10 73 51 73" id="bu"/><path d="M103-251c84 0 111 97 45 133-19 10-37 24-39 52H78c0-63 77-55 77-114 0-30-21-42-52-43-32 0-53 17-56 46l-32-2c7-45 34-72 88-72zM77 0v-35h34V0H77" id="bv"/><g id="i"><use transform="matrix(0.05,0,0,0.05,0,0)" xlink:href="#bj"/><use transform="matrix(0.05,0,0,0.05,10,0)" xlink:href="#bo"/><use transform="matrix(0.05,0,0,0.05,24.950000000000003,0)" xlink:href="#bu"/><use transform="matrix(0.05,0,0,0.05,34.95,0)" xlink:href="#bf"/><use transform="matrix(0.05,0,0,0.05,40.900000000000006,0)" xlink:href="#bj"/><use transform="matrix(0.05,0,0,0.05,50.900000000000006,0)" xlink:href="#bt"/><use transform="matrix(0.05,0,0,0.05,59.900000000000006,0)" xlink:href="#bg"/><use transform="matrix(0.05,0,0,0.05,69.9,0)" xlink:href="#bv"/></g><path d="M108 0H70L1-190h34L89-25l56-165h34" id="bw"/><path d="M96-169c-40 0-48 33-48 73s9 75 48 75c24 0 41-14 43-38l32 2c-6 37-31 61-74 61-59 0-76-41-82-99-10-93 101-131 147-64 4 7 5 14 7 22l-32 3c-4-21-16-35-41-35" id="bx"/><path d="M100-194c63 0 86 42 84 106H49c0 40 14 67 53 68 26 1 43-12 49-29l28 8c-11 28-37 45-77 45C44 4 14-33 15-96c1-61 26-98 85-98zm52 81c6-60-76-77-97-28-3 7-6 17-6 28h103zm-32-149c12 18 30 30 39 51-31 2-38-20-57-30-20 10-27 32-59 30 9-22 29-33 41-51h36" id="by"/><g id="j"><use transform="matrix(0.05,0,0,0.05,0,0)" xlink:href="#bw"/><use transform="matrix(0.05,0,0,0.05,9,0)" xlink:href="#br"/><use transform="matrix(0.05,0,0,0.05,19,0)" xlink:href="#bx"/><use transform="matrix(0.05,0,0,0.05,28,0)" xlink:href="#by"/></g><g id="k"><use transform="matrix(0.05,0,0,0.05,0,0)" xlink:href="#bp"/><use transform="matrix(0.05,0,0,0.05,5,0)" xlink:href="#br"/><use transform="matrix(0.05,0,0,0.05,15,0)" xlink:href="#bq"/></g><g id="l"><use transform="matrix(0.05,0,0,0.05,0,0)" xlink:href="#bs"/><use transform="matrix(0.05,0,0,0.05,10,0)" xlink:href="#bj"/><use transform="matrix(0.05,0,0,0.05,20,0)" xlink:href="#bt"/><use transform="matrix(0.05,0,0,0.05,29,0)" xlink:href="#bm"/><use transform="matrix(0.05,0,0,0.05,32.95,0)" xlink:href="#bq"/><use transform="matrix(0.05,0,0,0.05,36.900000000000006,0)" xlink:href="#bn"/><use transform="matrix(0.05,0,0,0.05,46.900000000000006,0)" xlink:href="#bg"/><use transform="matrix(0.05,0,0,0.05,56.900000000000006,0)" xlink:href="#bs"/><use transform="matrix(0.05,0,0,0.05,66.9,0)" xlink:href="#br"/></g><g id="m"><use transform="matrix(0.05,0,0,0.05,0,0)" xlink:href="#bs"/><use transform="matrix(0.05,0,0,0.05,10,0)" xlink:href="#bg"/></g><path d="M137 0h-34L2-248h35l83 218 83-218h36" id="bz"/><g id="n"><use transform="matrix(0.05,0,0,0.05,0,0)" xlink:href="#bz"/><use transform="matrix(0.05,0,0,0.05,11,0)" xlink:href="#br"/><use transform="matrix(0.05,0,0,0.05,21,0)" xlink:href="#bx"/><use transform="matrix(0.05,0,0,0.05,30,0)" xlink:href="#by"/></g><path d="M115-194c53 0 69 39 70 98 0 66-23 100-70 100C84 3 66-7 56-30L54 0H23l1-261h32v101c10-23 28-34 59-34zm-8 174c40 0 45-34 45-75 0-40-5-75-45-74-42 0-51 32-51 76 0 43 10 73 51 73" id="bA"/><path d="M106-169C34-169 62-67 57 0H25v-261h32l-1 103c12-21 28-36 61-36 89 0 53 116 60 194h-32v-121c2-32-8-49-39-48" id="bB"/><g id="o"><use transform="matrix(0.05,0,0,0.05,0,0)" xlink:href="#bi"/><use transform="matrix(0.05,0,0,0.05,5,0)" xlink:href="#bf"/><use transform="matrix(0.05,0,0,0.05,10.95,0)" xlink:href="#bg"/><use transform="matrix(0.05,0,0,0.05,20.95,0)" xlink:href="#bA"/><use transform="matrix(0.05,0,0,0.05,30.950000000000003,0)" xlink:href="#bg"/><use transform="matrix(0.05,0,0,0.05,40.95,0)" xlink:href="#bm"/><use transform="matrix(0.05,0,0,0.05,44.900000000000006,0)" xlink:href="#bB"/><use transform="matrix(0.05,0,0,0.05,54.900000000000006,0)" xlink:href="#bg"/></g><g id="p"><use transform="matrix(0.05,0,0,0.05,0,0)" xlink:href="#bj"/><use transform="matrix(0.05,0,0,0.05,10,0)" xlink:href="#bo"/></g><g id="q"><use transform="matrix(0.05,0,0,0.05,0,0)" xlink:href="#be"/><use transform="matrix(0.05,0,0,0.05,10,0)" xlink:href="#bo"/><use transform="matrix(0.05,0,0,0.05,24.950000000000003,0)" xlink:href="#bg"/></g><g id="r"><use transform="matrix(0.05,0,0,0.05,0,0)" xlink:href="#bj"/><use transform="matrix(0.05,0,0,0.05,10,0)" xlink:href="#bo"/><use transform="matrix(0.05,0,0,0.05,24.950000000000003,0)" xlink:href="#bu"/><use transform="matrix(0.05,0,0,0.05,34.95,0)" xlink:href="#bf"/><use transform="matrix(0.05,0,0,0.05,40.900000000000006,0)" xlink:href="#bj"/><use transform="matrix(0.05,0,0,0.05,50.900000000000006,0)" xlink:href="#bt"/><use transform="matrix(0.05,0,0,0.05,59.900000000000006,0)" xlink:href="#bg"/></g><g id="s"><use transform="matrix(0.05,0,0,0.05,0,0)" xlink:href="#bs"/><use transform="matrix(0.05,0,0,0.05,10,0)" xlink:href="#bj"/></g><path d="M127-220V0H93v-220H8v-28h204v28h-85" id="bC"/><path d="M33 0v-38h34V0H33" id="bD"/><path d="M33 0v-248h34V0H33" id="bE"/><g id="t"><use transform="matrix(0.05,0,0,0.05,0,0)" xlink:href="#bC"/><use transform="matrix(0.05,0,0,0.05,8.950000000000001,0)" xlink:href="#bD"/><use transform="matrix(0.05,0,0,0.05,13.950000000000001,0)" xlink:href="#bE"/><use transform="matrix(0.05,0,0,0.05,18.950000000000003,0)" xlink:href="#bD"/><use transform="matrix(0.05,0,0,0.05,23.950000000000003,0)" xlink:href="#bv"/></g><path d="M30 0v-248h187v28H63v79h144v27H63v87h162V0H30" id="bF"/><g id="u"><use transform="matrix(0.05,0,0,0.05,0,0)" xlink:href="#bF"/><use transform="matrix(0.05,0,0,0.05,12,0)" xlink:href="#bo"/></g><g id="v"><use transform="matrix(0.05,0,0,0.05,0,0)" xlink:href="#bk"/><use transform="matrix(0.05,0,0,0.05,10,0)" xlink:href="#be"/><use transform="matrix(0.05,0,0,0.05,20,0)" xlink:href="#bg"/><use transform="matrix(0.05,0,0,0.05,30,0)" xlink:href="#bm"/></g><g id="w"><use transform="matrix(0.05,0,0,0.05,0,0)" xlink:href="#bt"/><use transform="matrix(0.05,0,0,0.05,9,0)" xlink:href="#bj"/><use transform="matrix(0.05,0,0,0.05,19,0)" xlink:href="#bi"/><use transform="matrix(0.05,0,0,0.05,24,0)" xlink:href="#br"/><use transform="matrix(0.05,0,0,0.05,34,0)" xlink:href="#bf"/></g><g id="x"><use transform="matrix(0.05,0,0,0.05,0,0)" xlink:href="#bg"/><use transform="matrix(0.05,0,0,0.05,10,0)" xlink:href="#bi"/><use transform="matrix(0.05,0,0,0.05,15,0)" xlink:href="#be"/><use transform="matrix(0.05,0,0,0.05,25,0)" xlink:href="#bg"/><use transform="matrix(0.05,0,0,0.05,35,0)" xlink:href="#bv"/></g><path d="M140-251c81 0 123 46 123 126C263-53 228-8 163 1c7 30 30 48 69 40v23c-55 16-95-15-103-61C56-3 17-48 17-125c0-80 42-126 123-126zm0 227c63 0 89-41 89-101s-29-99-89-99c-61 0-89 39-89 99S79-25 140-24" id="bG"/><g id="y"><use transform="matrix(0.05,0,0,0.05,0,0)" xlink:href="#bG"/><use transform="matrix(0.05,0,0,0.05,14,0)" xlink:href="#be"/><use transform="matrix(0.05,0,0,0.05,24,0)" xlink:href="#bg"/><use transform="matrix(0.05,0,0,0.05,34,0)" xlink:href="#bm"/></g><use transform="matrix(0.05,0,0,0.05,0,0)" xlink:href="#bg" id="z"/><path d="M34 0v-190h32V0H34zM24-211c8-23 27-35 38-54h36v5l-58 49H24" id="bH"/><g id="A"><use transform="matrix(0.05,0,0,0.05,0,0)" xlink:href="#bu"/><use transform="matrix(0.05,0,0,0.05,10,0)" xlink:href="#br"/><use transform="matrix(0.05,0,0,0.05,20,0)" xlink:href="#bm"/><use transform="matrix(0.05,0,0,0.05,23.95,0)" xlink:href="#bH"/><use transform="matrix(0.05,0,0,0.05,28.950000000000003,0)" xlink:href="#bi"/><use transform="matrix(0.05,0,0,0.05,33.95,0)" xlink:href="#bq"/><use transform="matrix(0.05,0,0,0.05,37.900000000000006,0)" xlink:href="#bx"/><use transform="matrix(0.05,0,0,0.05,46.900000000000006,0)" xlink:href="#bg"/></g><g id="B"><use transform="matrix(0.05,0,0,0.05,0,0)" xlink:href="#bg"/><use transform="matrix(0.05,0,0,0.05,10,0)" xlink:href="#bs"/><use transform="matrix(0.05,0,0,0.05,20,0)" xlink:href="#br"/><use transform="matrix(0.05,0,0,0.05,30,0)" xlink:href="#bi"/><use transform="matrix(0.05,0,0,0.05,35,0)" xlink:href="#bg"/><use transform="matrix(0.05,0,0,0.05,45,0)" xlink:href="#bs"/><use transform="matrix(0.05,0,0,0.05,55,0)" xlink:href="#bg"/></g><g id="C"><use transform="matrix(0.05,0,0,0.05,0,0)" xlink:href="#bs"/><use transform="matrix(0.05,0,0,0.05,10,0)" xlink:href="#be"/><use transform="matrix(0.05,0,0,0.05,20,0)" xlink:href="#bf"/><use transform="matrix(0.05,0,0,0.05,25.950000000000003,0)" xlink:href="#bg"/><use transform="matrix(0.05,0,0,0.05,35.95,0)" xlink:href="#bh"/><use transform="matrix(0.05,0,0,0.05,45.95,0)" xlink:href="#bi"/><use transform="matrix(0.05,0,0,0.05,50.95,0)" xlink:href="#bj"/></g><g id="D"><use transform="matrix(0.05,0,0,0.05,0,0)" xlink:href="#bk"/><use transform="matrix(0.05,0,0,0.05,10,0)" xlink:href="#be"/><use transform="matrix(0.05,0,0,0.05,20,0)" xlink:href="#bg"/><use transform="matrix(0.05,0,0,0.05,30,0)" xlink:href="#bf"/><use transform="matrix(0.05,0,0,0.05,35.95,0)" xlink:href="#bj"/><use transform="matrix(0.05,0,0,0.05,45.95,0)" xlink:href="#bh"/><use transform="matrix(0.05,0,0,0.05,55.95,0)" xlink:href="#bi"/><use transform="matrix(0.05,0,0,0.05,60.95,0)" xlink:href="#bj"/><use transform="matrix(0.05,0,0,0.05,70.95,0)" xlink:href="#bh"/><use transform="matrix(0.05,0,0,0.05,80.95,0)" xlink:href="#bg"/><use transform="matrix(0.05,0,0,0.05,90.95,0)" xlink:href="#bv"/></g><g id="E"><use transform="matrix(0.05,0,0,0.05,0,0)" xlink:href="#bG"/><use transform="matrix(0.05,0,0,0.05,14,0)" xlink:href="#be"/><use transform="matrix(0.05,0,0,0.05,24,0)" xlink:href="#bg"/><use transform="matrix(0.05,0,0,0.05,34,0)" xlink:href="#bh"/><use transform="matrix(0.05,0,0,0.05,44,0)" xlink:href="#bi"/><use transform="matrix(0.05,0,0,0.05,49,0)" xlink:href="#br"/><use transform="matrix(0.05,0,0,0.05,59,0)" xlink:href="#bt"/></g><path d="M141-36C126-15 110 5 73 4 37 3 15-17 15-53c-1-64 63-63 125-63 3-35-9-54-41-54-24 1-41 7-42 31l-33-3c5-37 33-52 76-52 45 0 72 20 72 64v82c-1 20 7 32 28 27v20c-31 9-61-2-59-35zM48-53c0 20 12 33 32 33 41-3 63-29 60-74-43 2-92-5-92 41zm25-158c8-23 27-35 38-54h36v5l-58 49H73" id="bI"/><g id="F"><use transform="matrix(0.05,0,0,0.05,0,0)" xlink:href="#bp"/><use transform="matrix(0.05,0,0,0.05,5,0)" xlink:href="#be"/><use transform="matrix(0.05,0,0,0.05,15,0)" xlink:href="#bh"/><use transform="matrix(0.05,0,0,0.05,25,0)" xlink:href="#bx"/><use transform="matrix(0.05,0,0,0.05,34,0)" xlink:href="#bq"/><use transform="matrix(0.05,0,0,0.05,37.95,0)" xlink:href="#br"/><use transform="matrix(0.05,0,0,0.05,47.95,0)" xlink:href="#bh"/><use transform="matrix(0.05,0,0,0.05,57.95,0)" xlink:href="#bI"/><use transform="matrix(0.05,0,0,0.05,67.95,0)" xlink:href="#bf"/><use transform="matrix(0.05,0,0,0.05,73.9,0)" xlink:href="#bq"/><use transform="matrix(0.05,0,0,0.05,77.85000000000001,0)" xlink:href="#br"/><use transform="matrix(0.05,0,0,0.05,87.85000000000001,0)" xlink:href="#bt"/></g><g id="G"><use transform="matrix(0.05,0,0,0.05,0,0)" xlink:href="#bj"/><use transform="matrix(0.05,0,0,0.05,10,0)" xlink:href="#bo"/><use transform="matrix(0.05,0,0,0.05,24.950000000000003,0)" xlink:href="#bu"/><use transform="matrix(0.05,0,0,0.05,34.95,0)" xlink:href="#bf"/><use transform="matrix(0.05,0,0,0.05,40.900000000000006,0)" xlink:href="#bj"/><use transform="matrix(0.05,0,0,0.05,50.900000000000006,0)" xlink:href="#bt"/><use transform="matrix(0.05,0,0,0.05,59.900000000000006,0)" xlink:href="#bg"/></g><g id="H"><use transform="matrix(0.05,0,0,0.05,0,0)" xlink:href="#bu"/><use transform="matrix(0.05,0,0,0.05,10,0)" xlink:href="#br"/><use transform="matrix(0.05,0,0,0.05,20,0)" xlink:href="#bt"/><use transform="matrix(0.05,0,0,0.05,29,0)" xlink:href="#bt"/><use transform="matrix(0.05,0,0,0.05,38,0)" xlink:href="#be"/><use transform="matrix(0.05,0,0,0.05,48,0)" xlink:href="#bq"/><use transform="matrix(0.05,0,0,0.05,51.95,0)" xlink:href="#bv"/></g><path d="M197 0v-115H63V0H30v-248h33v105h134v-105h34V0h-34" id="bJ"/><g id="I"><use transform="matrix(0.05,0,0,0.05,0,0)" xlink:href="#bJ"/><use transform="matrix(0.05,0,0,0.05,12.950000000000001,0)" xlink:href="#br"/><use transform="matrix(0.05,0,0,0.05,22.950000000000003,0)" xlink:href="#be"/><use transform="matrix(0.05,0,0,0.05,32.95,0)" xlink:href="#bw"/><use transform="matrix(0.05,0,0,0.05,41.95,0)" xlink:href="#bj"/></g><path d="M96-169c-40 0-48 33-48 73s9 75 48 75c24 0 41-14 43-38l32 2c-6 37-31 61-74 61-59 0-76-41-82-99-10-93 101-131 147-64 4 7 5 14 7 22l-32 3c-4-21-16-35-41-35zm3 187c19-1 33 8 33 26 0 31-30 33-64 32V58c18 2 39 4 41-13 1-15-18-13-34-13L87 0h19" id="bK"/><path d="M141-36C126-15 110 5 73 4 37 3 15-17 15-53c-1-64 63-63 125-63 3-35-9-54-41-54-24 1-41 7-42 31l-33-3c5-37 33-52 76-52 45 0 72 20 72 64v82c-1 20 7 32 28 27v20c-31 9-61-2-59-35zM48-53c0 20 12 33 32 33 41-3 63-29 60-74-43 2-92-5-92 41zm117-205c-3 23-9 48-36 47-26-1-65-44-74 0H39c4-23 8-48 36-47s64 44 74 0h16" id="bL"/><g id="J"><use transform="matrix(0.05,0,0,0.05,0,0)" xlink:href="#bf"/><use transform="matrix(0.05,0,0,0.05,5.95,0)" xlink:href="#bj"/><use transform="matrix(0.05,0,0,0.05,15.949999999999998,0)" xlink:href="#bs"/><use transform="matrix(0.05,0,0,0.05,25.950000000000003,0)" xlink:href="#be"/><use transform="matrix(0.05,0,0,0.05,35.95,0)" xlink:href="#bK"/><use transform="matrix(0.05,0,0,0.05,44.95,0)" xlink:href="#bL"/><use transform="matrix(0.05,0,0,0.05,54.95,0)" xlink:href="#br"/></g><path d="M87 75C49 33 22-17 22-94c0-76 28-126 65-167h31c-38 41-64 92-64 168S80 34 118 75H87" id="bM"/><path d="M100-194c62-1 85 37 85 99 1 63-27 99-86 99S16-35 15-95c0-66 28-99 85-99zM99-20c44 1 53-31 53-75 0-43-8-75-51-75s-53 32-53 75 10 74 51 75zm66-238c-3 23-9 48-36 47-26-1-65-44-74 0H39c4-23 8-48 36-47s64 44 74 0h16" id="bN"/><path d="M33-261c38 41 65 92 65 168S71 34 33 75H2C39 34 66-17 66-93S39-220 2-261h31" id="bO"/><g id="K"><use transform="matrix(0.05,0,0,0.05,0,0)" xlink:href="#bM"/><use transform="matrix(0.05,0,0,0.05,5.95,0)" xlink:href="#bs"/><use transform="matrix(0.05,0,0,0.05,15.949999999999998,0)" xlink:href="#bj"/><use transform="matrix(0.05,0,0,0.05,25.950000000000003,0)" xlink:href="#bo"/><use transform="matrix(0.05,0,0,0.05,40.9,0)" xlink:href="#bq"/><use transform="matrix(0.05,0,0,0.05,44.85,0)" xlink:href="#bt"/><use transform="matrix(0.05,0,0,0.05,53.85,0)" xlink:href="#bt"/><use transform="matrix(0.05,0,0,0.05,62.85,0)" xlink:href="#bN"/><use transform="matrix(0.05,0,0,0.05,72.85,0)" xlink:href="#bj"/><use transform="matrix(0.05,0,0,0.05,82.85,0)" xlink:href="#bt"/><use transform="matrix(0.05,0,0,0.05,91.85,0)" xlink:href="#bO"/></g><g id="L"><use transform="matrix(0.05,0,0,0.05,0,0)" xlink:href="#bs"/><use transform="matrix(0.05,0,0,0.05,10,0)" xlink:href="#br"/></g><g id="M"><use transform="matrix(0.05,0,0,0.05,0,0)" xlink:href="#bk"/><use transform="matrix(0.05,0,0,0.05,10,0)" xlink:href="#be"/><use transform="matrix(0.05,0,0,0.05,20,0)" xlink:href="#bg"/><use transform="matrix(0.05,0,0,0.05,30,0)" xlink:href="#bs"/><use transform="matrix(0.05,0,0,0.05,40,0)" xlink:href="#bf"/><use transform="matrix(0.05,0,0,0.05,45.95,0)" xlink:href="#br"/></g><g id="N"><use transform="matrix(0.05,0,0,0.05,0,0)" xlink:href="#bp"/><use transform="matrix(0.05,0,0,0.05,5,0)" xlink:href="#be"/><use transform="matrix(0.05,0,0,0.05,15,0)" xlink:href="#bh"/><use transform="matrix(0.05,0,0,0.05,25,0)" xlink:href="#bx"/><use transform="matrix(0.05,0,0,0.05,34,0)" xlink:href="#bq"/><use transform="matrix(0.05,0,0,0.05,37.95,0)" xlink:href="#br"/><use transform="matrix(0.05,0,0,0.05,47.95,0)" xlink:href="#bh"/><use transform="matrix(0.05,0,0,0.05,57.95,0)" xlink:href="#bI"/><use transform="matrix(0.05,0,0,0.05,67.95,0)" xlink:href="#bf"/><use transform="matrix(0.05,0,0,0.05,73.9,0)" xlink:href="#bq"/><use transform="matrix(0.05,0,0,0.05,77.85000000000001,0)" xlink:href="#br"/><use transform="matrix(0.05,0,0,0.05,87.85000000000001,0)" xlink:href="#bt"/><use transform="matrix(0.05,0,0,0.05,96.85000000000001,0)" xlink:href="#bv"/></g><g id="O"><use transform="matrix(0.05,0,0,0.05,0,0)" xlink:href="#bg"/><use transform="matrix(0.05,0,0,0.05,10,0)" xlink:href="#bm"/><use transform="matrix(0.05,0,0,0.05,13.949999999999998,0)" xlink:href="#bn"/><use transform="matrix(0.05,0,0,0.05,23.95,0)" xlink:href="#be"/><use transform="matrix(0.05,0,0,0.05,33.95,0)" xlink:href="#bo"/><use transform="matrix(0.05,0,0,0.05,48.900000000000006,0)" xlink:href="#bg"/></g><g id="P"><use transform="matrix(0.05,0,0,0.05,0,0)" xlink:href="#bf"/><use transform="matrix(0.05,0,0,0.05,5.95,0)" xlink:href="#bj"/><use transform="matrix(0.05,0,0,0.05,15.949999999999998,0)" xlink:href="#bs"/><use transform="matrix(0.05,0,0,0.05,25.950000000000003,0)" xlink:href="#be"/><use transform="matrix(0.05,0,0,0.05,35.95,0)" xlink:href="#bK"/><use transform="matrix(0.05,0,0,0.05,44.95,0)" xlink:href="#bL"/><use transform="matrix(0.05,0,0,0.05,54.95,0)" xlink:href="#br"/></g><g id="Q"><use transform="matrix(0.05,0,0,0.05,0,0)" xlink:href="#bs"/><use transform="matrix(0.05,0,0,0.05,10,0)" xlink:href="#bj"/><use transform="matrix(0.05,0,0,0.05,20,0)" xlink:href="#bo"/><use transform="matrix(0.05,0,0,0.05,34.95,0)" xlink:href="#bg"/><use transform="matrix(0.05,0,0,0.05,44.95,0)" xlink:href="#bh"/><use transform="matrix(0.05,0,0,0.05,54.95,0)" xlink:href="#bs"/><use transform="matrix(0.05,0,0,0.05,64.95,0)" xlink:href="#bg"/></g><path d="M0 4l72-265h28L28 4H0" id="bP"/><use transform="matrix(0.05,0,0,0.05,0,0)" xlink:href="#bP" id="R"/><g id="S"><use transform="matrix(0.05,0,0,0.05,0,0)" xlink:href="#bi"/><use transform="matrix(0.05,0,0,0.05,5,0)" xlink:href="#bf"/><use transform="matrix(0.05,0,0,0.05,10.95,0)" xlink:href="#bg"/><use transform="matrix(0.05,0,0,0.05,20.95,0)" xlink:href="#bA"/><use transform="matrix(0.05,0,0,0.05,30.950000000000003,0)" xlink:href="#bg"/><use transform="matrix(0.05,0,0,0.05,40.95,0)" xlink:href="#bm"/><use transform="matrix(0.05,0,0,0.05,44.900000000000006,0)" xlink:href="#bB"/><use transform="matrix(0.05,0,0,0.05,54.900000000000006,0)" xlink:href="#br"/><use transform="matrix(0.05,0,0,0.05,64.9,0)" xlink:href="#bv"/></g><path d="M185-189c-5-48-123-54-124 2 14 75 158 14 163 119 3 78-121 87-175 55-17-10-28-26-33-46l33-7c5 56 141 63 141-1 0-78-155-14-162-118-5-82 145-84 179-34 5 7 8 16 11 25" id="bQ"/><g id="T"><use transform="matrix(0.05,0,0,0.05,0,0)" xlink:href="#bQ"/><use transform="matrix(0.05,0,0,0.05,12,0)" xlink:href="#be"/><use transform="matrix(0.05,0,0,0.05,22,0)" xlink:href="#bg"/></g><g id="U"><use transform="matrix(0.05,0,0,0.05,0,0)" xlink:href="#bg"/><use transform="matrix(0.05,0,0,0.05,10,0)" xlink:href="#bs"/><use transform="matrix(0.05,0,0,0.05,20,0)" xlink:href="#bj"/><use transform="matrix(0.05,0,0,0.05,30,0)" xlink:href="#bf"/><use transform="matrix(0.05,0,0,0.05,35.95,0)" xlink:href="#bq"/><use transform="matrix(0.05,0,0,0.05,39.900000000000006,0)" xlink:href="#be"/></g><g id="V"><use transform="matrix(0.05,0,0,0.05,0,0)" xlink:href="#bg"/><use transform="matrix(0.05,0,0,0.05,10,0)" xlink:href="#br"/></g><g id="W"><use transform="matrix(0.05,0,0,0.05,0,0)" xlink:href="#bB"/><use transform="matrix(0.05,0,0,0.05,10,0)" xlink:href="#br"/><use transform="matrix(0.05,0,0,0.05,20,0)" xlink:href="#bo"/><use transform="matrix(0.05,0,0,0.05,34.95,0)" xlink:href="#bj"/></g><g id="X"><use transform="matrix(0.05,0,0,0.05,0,0)" xlink:href="#br"/><use transform="matrix(0.05,0,0,0.05,10,0)" xlink:href="#bp"/><use transform="matrix(0.05,0,0,0.05,14.65,0)" xlink:href="#bp"/><use transform="matrix(0.05,0,0,0.05,19.65,0)" xlink:href="#bq"/><use transform="matrix(0.05,0,0,0.05,23.599999999999998,0)" xlink:href="#bx"/><use transform="matrix(0.05,0,0,0.05,32.599999999999994,0)" xlink:href="#bj"/><use transform="matrix(0.05,0,0,0.05,42.599999999999994,0)" xlink:href="#bv"/></g><path d="M100-194c63 0 86 42 84 106H49c0 40 14 67 53 68 26 1 43-12 49-29l28 8c-11 28-37 45-77 45C44 4 14-33 15-96c1-61 26-98 85-98zm52 81c6-60-76-77-97-28-3 7-6 17-6 28h103zm-74-98c8-23 27-35 38-54h36v5l-58 49H78" id="bR"/><use transform="matrix(0.05,0,0,0.05,0,0)" xlink:href="#bR" id="Y"/><use transform="matrix(0.05,0,0,0.05,0,0)" xlink:href="#bP" id="Z"/><g id="aa"><use transform="matrix(0.05,0,0,0.05,0,0)" xlink:href="#bj"/><use transform="matrix(0.05,0,0,0.05,10,0)" xlink:href="#bf"/><use transform="matrix(0.05,0,0,0.05,15.949999999999998,0)" xlink:href="#bg"/></g><use transform="matrix(0.05,0,0,0.05,0,0)" xlink:href="#br" id="ab"/><g id="ac"><use transform="matrix(0.05,0,0,0.05,0,0)" xlink:href="#bt"/><use transform="matrix(0.05,0,0,0.05,9,0)" xlink:href="#bj"/><use transform="matrix(0.05,0,0,0.05,19,0)" xlink:href="#be"/></g><g id="ad"><use transform="matrix(0.05,0,0,0.05,0,0)" xlink:href="#bx"/><use transform="matrix(0.05,0,0,0.05,9,0)" xlink:href="#bg"/><use transform="matrix(0.05,0,0,0.05,19,0)" xlink:href="#bf"/><use transform="matrix(0.05,0,0,0.05,24.95,0)" xlink:href="#bn"/><use transform="matrix(0.05,0,0,0.05,34.95,0)" xlink:href="#br"/><use transform="matrix(0.05,0,0,0.05,44.95,0)" xlink:href="#bv"/></g><g id="ae"><use transform="matrix(0.05,0,0,0.05,0,0)" xlink:href="#bJ"/><use transform="matrix(0.05,0,0,0.05,12.950000000000001,0)" xlink:href="#bI"/></g><g id="af"><use transform="matrix(0.05,0,0,0.05,0,0)" xlink:href="#bk"/><use transform="matrix(0.05,0,0,0.05,10,0)" xlink:href="#be"/><use transform="matrix(0.05,0,0,0.05,20,0)" xlink:href="#bg"/><use transform="matrix(0.05,0,0,0.05,30,0)" xlink:href="#bh"/><use transform="matrix(0.05,0,0,0.05,40,0)" xlink:href="#bi"/><use transform="matrix(0.05,0,0,0.05,45,0)" xlink:href="#br"/></g><g id="ag"><use transform="matrix(0.05,0,0,0.05,0,0)" xlink:href="#bi"/><use transform="matrix(0.05,0,0,0.05,5,0)" xlink:href="#bj"/><use transform="matrix(0.05,0,0,0.05,15,0)" xlink:href="#bo"/><use transform="matrix(0.05,0,0,0.05,29.950000000000003,0)" xlink:href="#bu"/><use transform="matrix(0.05,0,0,0.05,39.95,0)" xlink:href="#br"/></g><g id="ah"><use transform="matrix(0.05,0,0,0.05,0,0)" xlink:href="#bj"/><use transform="matrix(0.05,0,0,0.05,10,0)" xlink:href="#bt"/><use transform="matrix(0.05,0,0,0.05,19,0)" xlink:href="#bi"/><use transform="matrix(0.05,0,0,0.05,24,0)" xlink:href="#bI"/></g><g id="ai"><use transform="matrix(0.05,0,0,0.05,0,0)" xlink:href="#bj"/><use transform="matrix(0.05,0,0,0.05,10,0)" xlink:href="#bt"/><use transform="matrix(0.05,0,0,0.05,19,0)" xlink:href="#bi"/><use transform="matrix(0.05,0,0,0.05,24,0)" xlink:href="#bg"/><use transform="matrix(0.05,0,0,0.05,34,0)" xlink:href="#bw"/><use transform="matrix(0.05,0,0,0.05,43,0)" xlink:href="#bg"/></g><g id="aj"><use transform="matrix(0.05,0,0,0.05,0,0)" xlink:href="#bh"/><use transform="matrix(0.05,0,0,0.05,10,0)" xlink:href="#bg"/></g><g id="ak"><use transform="matrix(0.05,0,0,0.05,0,0)" xlink:href="#bk"/><use transform="matrix(0.05,0,0,0.05,10,0)" xlink:href="#be"/><use transform="matrix(0.05,0,0,0.05,20,0)" xlink:href="#bg"/><use transform="matrix(0.05,0,0,0.05,30,0)" xlink:href="#bm"/></g><g id="al"><use transform="matrix(0.05,0,0,0.05,0,0)" xlink:href="#bf"/><use transform="matrix(0.05,0,0,0.05,5.95,0)" xlink:href="#bj"/><use transform="matrix(0.05,0,0,0.05,15.949999999999998,0)" xlink:href="#bn"/><use transform="matrix(0.05,0,0,0.05,25.950000000000003,0)" xlink:href="#bq"/><use transform="matrix(0.05,0,0,0.05,29.899999999999995,0)" xlink:href="#bo"/><use transform="matrix(0.05,0,0,0.05,44.85,0)" xlink:href="#bj"/></g><g id="am"><use transform="matrix(0.05,0,0,0.05,0,0)" xlink:href="#bg"/><use transform="matrix(0.05,0,0,0.05,10,0)" xlink:href="#bi"/><use transform="matrix(0.05,0,0,0.05,15,0)" xlink:href="#be"/><use transform="matrix(0.05,0,0,0.05,25,0)" xlink:href="#bg"/><use transform="matrix(0.05,0,0,0.05,35,0)" xlink:href="#bw"/><use transform="matrix(0.05,0,0,0.05,44,0)" xlink:href="#bg"/></g><g id="an"><use transform="matrix(0.05,0,0,0.05,0,0)" xlink:href="#bg"/><use transform="matrix(0.05,0,0,0.05,10,0)" xlink:href="#bh"/><use transform="matrix(0.05,0,0,0.05,20,0)" xlink:href="#bi"/><use transform="matrix(0.05,0,0,0.05,25,0)" xlink:href="#bj"/><use transform="matrix(0.05,0,0,0.05,35,0)" xlink:href="#bf"/><use transform="matrix(0.05,0,0,0.05,40.95,0)" xlink:href="#bq"/><use transform="matrix(0.05,0,0,0.05,44.900000000000006,0)" xlink:href="#br"/><use transform="matrix(0.05,0,0,0.05,54.900000000000006,0)" xlink:href="#bf"/><use transform="matrix(0.05,0,0,0.05,60.85,0)" xlink:href="#bo"/><use transform="matrix(0.05,0,0,0.05,75.80000000000001,0)" xlink:href="#bj"/><use transform="matrix(0.05,0,0,0.05,85.80000000000001,0)" xlink:href="#bh"/><use transform="matrix(0.05,0,0,0.05,95.80000000000001,0)" xlink:href="#bi"/><use transform="matrix(0.05,0,0,0.05,100.80000000000001,0)" xlink:href="#bj"/></g><path d="M141-36C126-15 110 5 73 4 37 3 15-17 15-53c-1-64 63-63 125-63 3-35-9-54-41-54-24 1-41 7-42 31l-33-3c5-37 33-52 76-52 45 0 72 20 72 64v82c-1 20 7 32 28 27v20c-31 9-61-2-59-35zM48-53c0 20 12 33 32 33 41-3 63-29 60-74-43 2-92-5-92 41zm62-158l-58-49v-5h36c12 19 30 32 38 54h-16" id="bS"/><use transform="matrix(0.05,0,0,0.05,0,0)" xlink:href="#bS" id="ao"/><path d="M212-179c-10-28-35-45-73-45-59 0-87 40-87 99 0 60 29 101 89 101 43 0 62-24 78-52l27 14C228-24 195 4 139 4 59 4 22-46 18-125c-6-104 99-153 187-111 19 9 31 26 39 46" id="bT"/><path d="M16-82v-28h88v28H16" id="bU"/><path d="M27 0v-27h64v-190l-56 39v-29l58-41h29v221h61V0H27" id="bV"/><path d="M99-251c64 0 84 50 84 122C183-37 130 33 47-8c-14-7-20-23-25-40l30-5c6 39 69 39 84 7 9-19 16-44 16-74-10 22-31 35-62 35-49 0-73-33-73-83 0-54 28-83 82-83zm-1 141c31-1 51-18 51-49 0-36-14-67-51-67-34 0-49 23-49 58 0 34 15 58 49 58" id="bW"/><g id="ap"><use transform="matrix(0.05,0,0,0.05,0,0)" xlink:href="#bT"/><use transform="matrix(0.05,0,0,0.05,12.950000000000001,0)" xlink:href="#br"/><use transform="matrix(0.05,0,0,0.05,22.950000000000003,0)" xlink:href="#bw"/><use transform="matrix(0.05,0,0,0.05,31.950000000000003,0)" xlink:href="#bq"/><use transform="matrix(0.05,0,0,0.05,35.900000000000006,0)" xlink:href="#bs"/><use transform="matrix(0.05,0,0,0.05,45.900000000000006,0)" xlink:href="#bU"/><use transform="matrix(0.05,0,0,0.05,51.85,0)" xlink:href="#bV"/><use transform="matrix(0.05,0,0,0.05,61.85,0)" xlink:href="#bW"/></g><path d="M205 0l-28-72H64L36 0H1l101-248h38L239 0h-34zm-38-99l-47-123c-12 45-31 82-46 123h93" id="bX"/><use transform="matrix(0.05,0,0,0.05,0,0)" xlink:href="#bX" id="aq"/><path d="M24-231v-30h32v30H24zM-9 49c24 4 33-6 33-30v-209h32V24c2 40-23 58-65 49V49" id="bY"/><g id="ar"><use transform="matrix(0.05,0,0,0.05,0,0)" xlink:href="#bY"/><use transform="matrix(0.05,0,0,0.05,3.95,0)" xlink:href="#br"/><use transform="matrix(0.05,0,0,0.05,13.949999999999998,0)" xlink:href="#bf"/><use transform="matrix(0.05,0,0,0.05,19.9,0)" xlink:href="#bh"/><use transform="matrix(0.05,0,0,0.05,29.899999999999995,0)" xlink:href="#bg"/><use transform="matrix(0.05,0,0,0.05,39.9,0)" xlink:href="#bs"/><use transform="matrix(0.05,0,0,0.05,49.9,0)" xlink:href="#bg"/></g><g id="as"><use transform="matrix(0.05,0,0,0.05,0,0)" xlink:href="#bs"/><use transform="matrix(0.05,0,0,0.05,10,0)" xlink:href="#bq"/><use transform="matrix(0.05,0,0,0.05,13.949999999999998,0)" xlink:href="#bI"/><use transform="matrix(0.05,0,0,0.05,23.95,0)" xlink:href="#bf"/><use transform="matrix(0.05,0,0,0.05,29.899999999999995,0)" xlink:href="#bq"/><use transform="matrix(0.05,0,0,0.05,33.85,0)" xlink:href="#bg"/></g><g id="at"><use transform="matrix(0.05,0,0,0.05,0,0)" xlink:href="#bs"/><use transform="matrix(0.05,0,0,0.05,10,0)" xlink:href="#bj"/></g><g id="au"><use transform="matrix(0.05,0,0,0.05,0,0)" xlink:href="#bi"/><use transform="matrix(0.05,0,0,0.05,5,0)" xlink:href="#bf"/><use transform="matrix(0.05,0,0,0.05,10.95,0)" xlink:href="#bg"/><use transform="matrix(0.05,0,0,0.05,20.95,0)" xlink:href="#bA"/><use transform="matrix(0.05,0,0,0.05,30.950000000000003,0)" xlink:href="#bg"/><use transform="matrix(0.05,0,0,0.05,40.95,0)" xlink:href="#bm"/><use transform="matrix(0.05,0,0,0.05,44.900000000000006,0)" xlink:href="#bB"/><use transform="matrix(0.05,0,0,0.05,54.900000000000006,0)" xlink:href="#br"/></g><g id="av"><use transform="matrix(0.05,0,0,0.05,0,0)" xlink:href="#bg"/><use transform="matrix(0.05,0,0,0.05,10,0)" xlink:href="#be"/><use transform="matrix(0.05,0,0,0.05,20,0)" xlink:href="#bo"/><use transform="matrix(0.05,0,0,0.05,34.95,0)" xlink:href="#bj"/><use transform="matrix(0.05,0,0,0.05,44.95,0)" xlink:href="#bh"/><use transform="matrix(0.05,0,0,0.05,54.95,0)" xlink:href="#bi"/><use transform="matrix(0.05,0,0,0.05,59.95,0)" xlink:href="#br"/><use transform="matrix(0.05,0,0,0.05,69.95,0)" xlink:href="#be"/><use transform="matrix(0.05,0,0,0.05,79.95,0)" xlink:href="#bv"/></g><g id="aw"><use transform="matrix(0.05,0,0,0.05,0,0)" xlink:href="#bJ"/><use transform="matrix(0.05,0,0,0.05,12.950000000000001,0)" xlink:href="#bg"/><use transform="matrix(0.05,0,0,0.05,22.950000000000003,0)" xlink:href="#bw"/><use transform="matrix(0.05,0,0,0.05,31.950000000000003,0)" xlink:href="#bq"/><use transform="matrix(0.05,0,0,0.05,35.900000000000006,0)" xlink:href="#bg"/></g><g id="ax"><use transform="matrix(0.05,0,0,0.05,0,0)" xlink:href="#bx"/><use transform="matrix(0.05,0,0,0.05,9,0)" xlink:href="#be"/><use transform="matrix(0.05,0,0,0.05,19,0)" xlink:href="#bm"/><use transform="matrix(0.05,0,0,0.05,22.95,0)" xlink:href="#bi"/><use transform="matrix(0.05,0,0,0.05,27.950000000000003,0)" xlink:href="#be"/><use transform="matrix(0.05,0,0,0.05,37.95,0)" xlink:href="#bf"/><use transform="matrix(0.05,0,0,0.05,43.900000000000006,0)" xlink:href="#bg"/></g><g id="ay"><use transform="matrix(0.05,0,0,0.05,0,0)" xlink:href="#br"/><use transform="matrix(0.05,0,0,0.05,10,0)" xlink:href="#bp"/><use transform="matrix(0.05,0,0,0.05,14.65,0)" xlink:href="#bp"/><use transform="matrix(0.05,0,0,0.05,19.65,0)" xlink:href="#bq"/><use transform="matrix(0.05,0,0,0.05,23.599999999999998,0)" xlink:href="#bx"/><use transform="matrix(0.05,0,0,0.05,32.599999999999994,0)" xlink:href="#bj"/></g><g id="az"><use transform="matrix(0.05,0,0,0.05,0,0)" xlink:href="#bg"/><use transform="matrix(0.05,0,0,0.05,10,0)" xlink:href="#bh"/><use transform="matrix(0.05,0,0,0.05,20,0)" xlink:href="#bi"/><use transform="matrix(0.05,0,0,0.05,25,0)" xlink:href="#bj"/><use transform="matrix(0.05,0,0,0.05,35,0)" xlink:href="#bf"/><use transform="matrix(0.05,0,0,0.05,40.95,0)" xlink:href="#bq"/><use transform="matrix(0.05,0,0,0.05,44.900000000000006,0)" xlink:href="#br"/><use transform="matrix(0.05,0,0,0.05,54.900000000000006,0)" xlink:href="#bf"/></g><g id="aA"><use transform="matrix(0.05,0,0,0.05,0,0)" xlink:href="#bu"/><use transform="matrix(0.05,0,0,0.05,10,0)" xlink:href="#bj"/><use transform="matrix(0.05,0,0,0.05,20,0)" xlink:href="#bf"/><use transform="matrix(0.05,0,0,0.05,25.950000000000003,0)" xlink:href="#bH"/><use transform="matrix(0.05,0,0,0.05,30.950000000000003,0)" xlink:href="#br"/><use transform="matrix(0.05,0,0,0.05,40.95,0)" xlink:href="#bs"/><use transform="matrix(0.05,0,0,0.05,50.95,0)" xlink:href="#br"/></g><g id="aB"><use transform="matrix(0.05,0,0,0.05,0,0)" xlink:href="#bG"/><use transform="matrix(0.05,0,0,0.05,14,0)" xlink:href="#be"/><use transform="matrix(0.05,0,0,0.05,24,0)" xlink:href="#bg"/><use transform="matrix(0.05,0,0,0.05,34,0)" xlink:href="#bh"/><use transform="matrix(0.05,0,0,0.05,44,0)" xlink:href="#bi"/><use transform="matrix(0.05,0,0,0.05,49,0)" xlink:href="#br"/></g><g id="aC"><use transform="matrix(0.05,0,0,0.05,0,0)" xlink:href="#bx"/><use transform="matrix(0.05,0,0,0.05,9,0)" xlink:href="#br"/><use transform="matrix(0.05,0,0,0.05,19,0)" xlink:href="#bh"/><use transform="matrix(0.05,0,0,0.05,29,0)" xlink:href="#bt"/><use transform="matrix(0.05,0,0,0.05,38,0)" xlink:href="#bq"/><use transform="matrix(0.05,0,0,0.05,41.95,0)" xlink:href="#bs"/><use transform="matrix(0.05,0,0,0.05,51.95,0)" xlink:href="#bj"/><use transform="matrix(0.05,0,0,0.05,61.95,0)" xlink:href="#bf"/><use transform="matrix(0.05,0,0,0.05,67.9,0)" xlink:href="#bg"/></g><g id="aD"><use transform="matrix(0.05,0,0,0.05,0,0)" xlink:href="#bk"/><use transform="matrix(0.05,0,0,0.05,10,0)" xlink:href="#be"/><use transform="matrix(0.05,0,0,0.05,20,0)" xlink:href="#bj"/></g><g id="aE"><use transform="matrix(0.05,0,0,0.05,0,0)" xlink:href="#bj"/><use transform="matrix(0.05,0,0,0.05,10,0)" xlink:href="#bt"/><use transform="matrix(0.05,0,0,0.05,19,0)" xlink:href="#bi"/><use transform="matrix(0.05,0,0,0.05,24,0)" xlink:href="#bI"/></g><g id="aF"><use transform="matrix(0.05,0,0,0.05,0,0)" xlink:href="#bp"/><use transform="matrix(0.05,0,0,0.05,5,0)" xlink:href="#be"/><use transform="matrix(0.05,0,0,0.05,15,0)" xlink:href="#bh"/><use transform="matrix(0.05,0,0,0.05,25,0)" xlink:href="#bx"/><use transform="matrix(0.05,0,0,0.05,34,0)" xlink:href="#bq"/><use transform="matrix(0.05,0,0,0.05,37.95,0)" xlink:href="#br"/><use transform="matrix(0.05,0,0,0.05,47.95,0)" xlink:href="#bh"/><use transform="matrix(0.05,0,0,0.05,57.95,0)" xlink:href="#bg"/><use transform="matrix(0.05,0,0,0.05,67.95,0)" xlink:href="#bh"/><use transform="matrix(0.05,0,0,0.05,77.95,0)" xlink:href="#bs"/><use transform="matrix(0.05,0,0,0.05,87.95,0)" xlink:href="#br"/><use transform="matrix(0.05,0,0,0.05,97.95,0)" xlink:href="#bv"/></g><path d="M140-251c81 0 123 46 123 126C263-46 219 4 140 4 59 4 17-45 17-125s42-126 123-126zm0 227c63 0 89-41 89-101s-29-99-89-99c-61 0-89 39-89 99S79-25 140-24" id="bZ"/><use transform="matrix(0.05,0,0,0.05,0,0)" xlink:href="#bZ" id="aG"/><g id="aH"><use transform="matrix(0.05,0,0,0.05,0,0)" xlink:href="#bf"/><use transform="matrix(0.05,0,0,0.05,5.95,0)" xlink:href="#bj"/><use transform="matrix(0.05,0,0,0.05,15.949999999999998,0)" xlink:href="#bh"/><use transform="matrix(0.05,0,0,0.05,25.950000000000003,0)" xlink:href="#bs"/><use transform="matrix(0.05,0,0,0.05,35.95,0)" xlink:href="#bq"/><use transform="matrix(0.05,0,0,0.05,39.900000000000006,0)" xlink:href="#bo"/><use transform="matrix(0.05,0,0,0.05,54.85,0)" xlink:href="#bj"/><use transform="matrix(0.05,0,0,0.05,64.85000000000001,0)" xlink:href="#bh"/><use transform="matrix(0.05,0,0,0.05,74.85000000000001,0)" xlink:href="#bi"/><use transform="matrix(0.05,0,0,0.05,79.85000000000001,0)" xlink:href="#br"/></g><use transform="matrix(0.05,0,0,0.05,0,0)" xlink:href="#bj" id="aI"/><g id="aJ"><use transform="matrix(0.05,0,0,0.05,0,0)" xlink:href="#bu"/><use transform="matrix(0.05,0,0,0.05,10,0)" xlink:href="#bf"/><use transform="matrix(0.05,0,0,0.05,15.949999999999998,0)" xlink:href="#br"/><use transform="matrix(0.05,0,0,0.05,25.950000000000003,0)" xlink:href="#bs"/><use transform="matrix(0.05,0,0,0.05,35.95,0)" xlink:href="#be"/><use transform="matrix(0.05,0,0,0.05,45.95,0)" xlink:href="#bi"/><use transform="matrix(0.05,0,0,0.05,50.95,0)" xlink:href="#bq"/><use transform="matrix(0.05,0,0,0.05,54.900000000000006,0)" xlink:href="#bw"/><use transform="matrix(0.05,0,0,0.05,63.900000000000006,0)" xlink:href="#bq"/><use transform="matrix(0.05,0,0,0.05,67.85000000000001,0)" xlink:href="#bs"/><use transform="matrix(0.05,0,0,0.05,77.85000000000001,0)" xlink:href="#bg"/><use transform="matrix(0.05,0,0,0.05,87.85000000000001,0)" xlink:href="#bs"/><use transform="matrix(0.05,0,0,0.05,97.85000000000001,0)" xlink:href="#bj"/></g><g id="aK"><use transform="matrix(0.05,0,0,0.05,0,0)" xlink:href="#bp"/><use transform="matrix(0.05,0,0,0.05,5,0)" xlink:href="#br"/><use transform="matrix(0.05,0,0,0.05,15,0)" xlink:href="#bf"/><use transform="matrix(0.05,0,0,0.05,20.95,0)" xlink:href="#bg"/><use transform="matrix(0.05,0,0,0.05,30.950000000000003,0)" xlink:href="#bo"/></g><g id="aL"><use transform="matrix(0.05,0,0,0.05,0,0)" xlink:href="#bg"/><use transform="matrix(0.05,0,0,0.05,10,0)" xlink:href="#bp"/><use transform="matrix(0.05,0,0,0.05,15,0)" xlink:href="#bj"/><use transform="matrix(0.05,0,0,0.05,25,0)" xlink:href="#bi"/><use transform="matrix(0.05,0,0,0.05,30,0)" xlink:href="#bg"/><use transform="matrix(0.05,0,0,0.05,40,0)" xlink:href="#bs"/><use transform="matrix(0.05,0,0,0.05,50,0)" xlink:href="#br"/><use transform="matrix(0.05,0,0,0.05,60,0)" xlink:href="#bt"/></g><g id="aM"><use transform="matrix(0.05,0,0,0.05,0,0)" xlink:href="#bx"/><use transform="matrix(0.05,0,0,0.05,9,0)" xlink:href="#br"/><use transform="matrix(0.05,0,0,0.05,19,0)" xlink:href="#bo"/></g><g id="aN"><use transform="matrix(0.05,0,0,0.05,0,0)" xlink:href="#bw"/><use transform="matrix(0.05,0,0,0.05,9,0)" xlink:href="#br"/><use transform="matrix(0.05,0,0,0.05,19,0)" xlink:href="#bx"/><use transform="matrix(0.05,0,0,0.05,28,0)" xlink:href="#by"/></g><g id="aO"><use transform="matrix(0.05,0,0,0.05,0,0)" xlink:href="#bg"/><use transform="matrix(0.05,0,0,0.05,10,0)" xlink:href="#bi"/><use transform="matrix(0.05,0,0,0.05,15,0)" xlink:href="#be"/><use transform="matrix(0.05,0,0,0.05,25,0)" xlink:href="#bg"/><use transform="matrix(0.05,0,0,0.05,35,0)" xlink:href="#bw"/><use transform="matrix(0.05,0,0,0.05,44,0)" xlink:href="#bg"/><use transform="matrix(0.05,0,0,0.05,54,0)" xlink:href="#bv"/></g><g id="aP"><use transform="matrix(0.05,0,0,0.05,0,0)" xlink:href="#bi"/><use transform="matrix(0.05,0,0,0.05,5,0)" xlink:href="#bf"/><use transform="matrix(0.05,0,0,0.05,10.95,0)" xlink:href="#bg"/><use transform="matrix(0.05,0,0,0.05,20.95,0)" xlink:href="#bA"/><use transform="matrix(0.05,0,0,0.05,30.950000000000003,0)" xlink:href="#bg"/><use transform="matrix(0.05,0,0,0.05,40.95,0)" xlink:href="#bm"/><use transform="matrix(0.05,0,0,0.05,44.900000000000006,0)" xlink:href="#bB"/><use transform="matrix(0.05,0,0,0.05,54.900000000000006,0)" xlink:href="#bg"/><use transform="matrix(0.05,0,0,0.05,64.9,0)" xlink:href="#bw"/><use transform="matrix(0.05,0,0,0.05,73.9,0)" xlink:href="#bg"/></g><g id="aQ"><use transform="matrix(0.05,0,0,0.05,0,0)" xlink:href="#bj"/><use transform="matrix(0.05,0,0,0.05,10,0)" xlink:href="#bo"/></g><g id="aR"><use transform="matrix(0.05,0,0,0.05,0,0)" xlink:href="#bt"/><use transform="matrix(0.05,0,0,0.05,9,0)" xlink:href="#bj"/><use transform="matrix(0.05,0,0,0.05,19,0)" xlink:href="#bi"/><use transform="matrix(0.05,0,0,0.05,24,0)" xlink:href="#br"/><use transform="matrix(0.05,0,0,0.05,34,0)" xlink:href="#bf"/></g><g id="aS"><use transform="matrix(0.05,0,0,0.05,0,0)" xlink:href="#bT"/><use transform="matrix(0.05,0,0,0.05,12.950000000000001,0)" xlink:href="#br"/><use transform="matrix(0.05,0,0,0.05,22.950000000000003,0)" xlink:href="#bo"/><use transform="matrix(0.05,0,0,0.05,37.900000000000006,0)" xlink:href="#bj"/><use transform="matrix(0.05,0,0,0.05,47.900000000000006,0)" xlink:href="#bh"/><use transform="matrix(0.05,0,0,0.05,57.900000000000006,0)" xlink:href="#bi"/><use transform="matrix(0.05,0,0,0.05,62.900000000000006,0)" xlink:href="#bI"/><use transform="matrix(0.05,0,0,0.05,72.9,0)" xlink:href="#bf"/><use transform="matrix(0.05,0,0,0.05,78.85000000000001,0)" xlink:href="#bq"/><use transform="matrix(0.05,0,0,0.05,82.80000000000001,0)" xlink:href="#br"/></g><g id="aT"><use transform="matrix(0.05,0,0,0.05,0,0)" xlink:href="#bg"/><use transform="matrix(0.05,0,0,0.05,10,0)" xlink:href="#bs"/><use transform="matrix(0.05,0,0,0.05,20,0)" xlink:href="#bq"/><use transform="matrix(0.05,0,0,0.05,23.95,0)" xlink:href="#bx"/><use transform="matrix(0.05,0,0,0.05,32.95,0)" xlink:href="#bq"/><use transform="matrix(0.05,0,0,0.05,36.900000000000006,0)" xlink:href="#br"/><use transform="matrix(0.05,0,0,0.05,46.900000000000006,0)" xlink:href="#bh"/><use transform="matrix(0.05,0,0,0.05,56.900000000000006,0)" xlink:href="#bg"/><use transform="matrix(0.05,0,0,0.05,66.9,0)" xlink:href="#bm"/></g><g id="aU"><use transform="matrix(0.05,0,0,0.05,0,0)" xlink:href="#bQ"/><use transform="matrix(0.05,0,0,0.05,12,0)" xlink:href="#bq"/><use transform="matrix(0.05,0,0,0.05,15.949999999999998,0)" xlink:href="#bo"/></g><path d="M190 0L58-211 59 0H30v-248h39L202-35l-2-213h31V0h-41" id="ca"/><g id="aV"><use transform="matrix(0.05,0,0,0.05,0,0)" xlink:href="#ca"/><use transform="matrix(0.05,0,0,0.05,12.950000000000001,0)" xlink:href="#bL"/><use transform="matrix(0.05,0,0,0.05,22.950000000000003,0)" xlink:href="#br"/></g><g id="aW"><use transform="matrix(0.05,0,0,0.05,0,0)" xlink:href="#bt"/><use transform="matrix(0.05,0,0,0.05,9,0)" xlink:href="#be"/><use transform="matrix(0.05,0,0,0.05,19,0)" xlink:href="#bg"/></g><g id="aX"><use transform="matrix(0.05,0,0,0.05,0,0)" xlink:href="#bG"/><use transform="matrix(0.05,0,0,0.05,14,0)" xlink:href="#be"/><use transform="matrix(0.05,0,0,0.05,24,0)" xlink:href="#bj"/></g><g id="aY"><use transform="matrix(0.05,0,0,0.05,0,0)" xlink:href="#bt"/><use transform="matrix(0.05,0,0,0.05,9,0)" xlink:href="#bg"/><use transform="matrix(0.05,0,0,0.05,19,0)" xlink:href="#bq"/><use transform="matrix(0.05,0,0,0.05,22.95,0)" xlink:href="#bA"/><use transform="matrix(0.05,0,0,0.05,32.95,0)" xlink:href="#bg"/><use transform="matrix(0.05,0,0,0.05,42.95,0)" xlink:href="#bl"/></g><g id="aZ"><use transform="matrix(0.05,0,0,0.05,0,0)" xlink:href="#bk"/><use transform="matrix(0.05,0,0,0.05,10,0)" xlink:href="#be"/><use transform="matrix(0.05,0,0,0.05,20,0)" xlink:href="#bg"/><use transform="matrix(0.05,0,0,0.05,30,0)" xlink:href="#bh"/><use transform="matrix(0.05,0,0,0.05,40,0)" xlink:href="#bi"/><use transform="matrix(0.05,0,0,0.05,45,0)" xlink:href="#br"/><use transform="matrix(0.05,0,0,0.05,55,0)" xlink:href="#bt"/></g><g id="ba"><use transform="matrix(0.05,0,0,0.05,0,0)" xlink:href="#bp"/><use transform="matrix(0.05,0,0,0.05,5,0)" xlink:href="#br"/><use transform="matrix(0.05,0,0,0.05,15,0)" xlink:href="#bf"/><use transform="matrix(0.05,0,0,0.05,20.95,0)" xlink:href="#bg"/><use transform="matrix(0.05,0,0,0.05,30.950000000000003,0)" xlink:href="#bo"/></g><g id="bb"><use transform="matrix(0.05,0,0,0.05,0,0)" xlink:href="#bs"/><use transform="matrix(0.05,0,0,0.05,10,0)" xlink:href="#bj"/><use transform="matrix(0.05,0,0,0.05,20,0)" xlink:href="#bo"/><use transform="matrix(0.05,0,0,0.05,34.95,0)" xlink:href="#bq"/><use transform="matrix(0.05,0,0,0.05,38.900000000000006,0)" xlink:href="#bi"/><use transform="matrix(0.05,0,0,0.05,43.900000000000006,0)" xlink:href="#bq"/><use transform="matrix(0.05,0,0,0.05,47.85000000000001,0)" xlink:href="#bs"/><use transform="matrix(0.05,0,0,0.05,57.85,0)" xlink:href="#br"/><use transform="matrix(0.05,0,0,0.05,67.85000000000001,0)" xlink:href="#bt"/><use transform="matrix(0.05,0,0,0.05,76.85000000000001,0)" xlink:href="#bv"/></g><path fill="#fff" d="M63-220v92h138v28H63V0H30v-248h175v28H63" id="cb"/><path fill="#fff" d="M24-231v-30h32v30H24zM24 0v-190h32V0H24" id="cc"/><path fill="#fff" d="M210-169c-67 3-38 105-44 169h-31v-121c0-29-5-50-35-48C34-165 62-65 56 0H25l-1-190h30c1 10-1 24 2 32 10-44 99-50 107 0 11-21 27-35 58-36 85-2 47 119 55 194h-31v-121c0-29-5-49-35-48" id="cd"/><g id="bc"><use transform="matrix(0.05,0,0,0.05,0,0)" xlink:href="#cb"/><use transform="matrix(0.05,0,0,0.05,10.950000000000001,0)" xlink:href="#cc"/><use transform="matrix(0.05,0,0,0.05,14.9,0)" xlink:href="#cd"/></g></defs></g></svg>