<svg id="Layer_1" xmlns="http://www.w3.org/2000/svg" viewBox="0 0 109.8 25.5" width="2500" height="581"><style>.st0{fill:#383838}.st1{fill:#4bad28}</style><path class="st0" d="M99.7 0c-5.6 0-10.1 4.5-10.1 10.1s4.5 10.1 10.1 10.1 10.1-4.5 10.1-10.1S105.3 0 99.7 0zm0 14.9c-2.7 0-4.8-2.2-4.8-4.8s2.2-4.8 4.8-4.8 4.8 2.2 4.8 4.8-2.1 4.8-4.8 4.8zM41.9 10.1v-.3c-.1-3.7-2.2-6.9-5.3-8.6C35.2.4 33.5 0 31.8 0c-5.6 0-10.1 4.5-10.1 10.1s4.5 10.1 10.1 10.1c1.7 0 3.4-.4 4.8-1.2 0 .7.6 1.2 1.3 1.2h2.8c.7 0 1.3-.6 1.3-1.3v-8.8zm-10.1 4.8c-2.7 0-4.8-2.2-4.8-4.8s2.2-4.8 4.8-4.8c2.7 0 4.8 2.2 4.8 4.8s-2.1 4.8-4.8 4.8zM88.2 18.6V8.8C88.2 4 84.5 0 80 0c-2.1 0-4.1.9-5.5 2.3C73 .9 71 0 68.9 0c-4.5 0-8.2 4-8.2 8.9V19.1c.1.6.6 1.1 1.2 1.1h2.8c.7 0 1.2-.5 1.2-1.1V8.4c0-1.7 1.3-3.1 2.9-3.1 1.6 0 2.9 1.4 2.9 3.1v10.7c.1.6.6 1.1 1.2 1.1h2.8c.7 0 1.2-.5 1.2-1.1V8.4c0-1.7 1.3-3.1 2.9-3.1 1.6 0 2.9 1.4 2.9 3.1v10.7c.1.6.6 1.1 1.2 1.1h2.8c.7 0 1.2-.5 1.2-1.1v-.5z"/><path class="st1" d="M5.3 10c0 .5-.6.9-1.1.5L.3 7.6C.1 7.4 0 7.2 0 7V2.3c0-.4.3-.4.5-.3l1.9 1.4c.3.2.7.2 1-.2C4.5 1.7 6.6.3 8.8 0h.1c.3 0 .7.2.8.7v3.8c0 .6-.3.8-.7.9C6.9 6 5.3 7.8 5.3 10z"/><path class="st0" d="M11.4.1c-.5 0-.8.3-.8.7v3.9c0 .4.3.6.6.7 2.2.5 3.8 2.4 3.8 4.7 0 2.7-2.2 4.8-4.8 4.8-1.2 0-2.3-.5-3.2-1.1l-6.5-5c-.3-.1-.5 0-.5.2v15.3c0 .7.6 1.3 1.3 1.3H4c.7 0 1.3-.6 1.3-1.3V19c1.4.8 3.1 1.2 4.8 1.2 5.6 0 10.1-4.5 10.1-10.1 0-5.1-3.8-9.4-8.8-10zM60.2 0h-3.3c-.7 0-1.4.5-1.6 1.2l-.2.4-2.3 5.1-1.7 3.8-4.1-9-.1-.4c-.3-.6-1-1.1-1.7-1.1h-3.3c-.7 0-1.1.5-.9 1.2l.1.4v.1c0 .1.1.1.1.1L48.1 17l-3 6.7-.1.1v.1l-.1.4c-.2.7.2 1.2.9 1.2h3.3c.7 0 1.4-.5 1.6-1.2l.2-.4 2.3-5.2 7.7-16.9c0-.1.1-.1.1-.1v-.1l.1-.4c.2-.7-.2-1.2-.9-1.2z"/></svg>